<svg xmlns="http://www.w3.org/2000/svg" viewBox="0 0 198.33 115"><defs><style>.cls-1{fill:#e23e47;}</style></defs><title>Asset 16</title><g id="Layer_2" data-name="Layer 2"><g id="Buildings"><rect class="cls-1" x="129.9" y="40.92" width="5.49" height="72.72"/><rect class="cls-1" x="144.39" y="47.08" width="8.55" height="67.92"/><rect class="cls-1" x="58.79" y="40.92" width="5.49" height="72.72"/><rect class="cls-1" x="41.25" y="47.08" width="8.55" height="67.92"/><path class="cls-1" d="M198.33,18.49c-33,19.28-45-3.32-45-3.32L151.88,0c-11.56,2.35-26.2,4.4-51.11,4.4C79.5,4.4,58,2.35,46.45,0L45,15.17S33,37.77,0,18.49c0,0,7,41.24,66.39,41.95h.12q1.43,0,2.9,0h59.52q1.47,0,2.9,0h.12C191.36,59.73,198.33,18.49,198.33,18.49Z"/></g></g></svg>