<svg xmlns="http://www.w3.org/2000/svg" viewBox="0 0 381.14 221"><defs><style>.cls-1{fill:#e23e47;}</style></defs><title>Asset 15</title><g id="Layer_2" data-name="Layer 2"><g id="Buildings"><rect class="cls-1" x="249.63" y="78.64" width="10.56" height="139.75"/><rect class="cls-1" x="277.48" y="90.47" width="16.42" height="130.53"/><rect class="cls-1" x="112.98" y="78.64" width="10.56" height="139.75"/><rect class="cls-1" x="79.26" y="90.47" width="16.42" height="130.53"/><path class="cls-1" d="M381.14,35.54c-63.39,37.05-86.4-6.38-86.4-6.38L291.87,0c-22.21,4.51-50.36,8.45-98.23,8.45C152.79,8.45,111.48,4.51,89.27,0L86.4,29.15S63.39,72.59,0,35.54c0,0,13.39,79.26,127.59,80.62h.23q2.75,0,5.57,0H247.76q2.82,0,5.57,0h.23C367.75,114.79,381.14,35.54,381.14,35.54Z"/></g></g></svg>