<svg xmlns="http://www.w3.org/2000/svg" viewBox="0 0 331.12 192"><defs><style>.cls-1{fill:#e23e47;}</style></defs><title>Asset 18</title><g id="Layer_2" data-name="Layer 2"><g id="Buildings"><rect class="cls-1" x="216.87" y="68.32" width="9.17" height="121.41"/><rect class="cls-1" x="241.07" y="78.6" width="14.27" height="113.4"/><rect class="cls-1" x="98.15" y="68.32" width="9.17" height="121.41"/><rect class="cls-1" x="68.86" y="78.6" width="14.27" height="113.4"/><path class="cls-1" d="M331.12,30.87c-55.07,32.19-75.07-5.54-75.07-5.54L253.57,0c-19.3,3.92-43.75,7.34-85.34,7.34C132.74,7.34,96.85,3.92,77.55,0L75.07,25.33S55.07,63.06,0,30.87c0,0,11.63,68.86,110.84,70h.2q2.38,0,4.84,0h99.37q2.45,0,4.84,0h.2C319.49,99.73,331.12,30.87,331.12,30.87Z"/></g></g></svg>