<svg xmlns="http://www.w3.org/2000/svg" viewBox="0 0 72.5 141.04"><defs><style>.cls-1{fill:#fff;}.cls-2{fill:#f1f1f2;}.cls-3{fill:#4f443c;}</style></defs><title>Asset 26</title><g id="Layer_2" data-name="Layer 2"><g id="Bunny"><path class="cls-1" d="M14.8,77.76c0-8.62,5.6-16.15,14-20.3C-13.95,8.55,3.55,6.7,3.55,6.7,22.06,6.7,33.85,48.18,35.67,55a34.73,34.73,0,0,1,8-.93,34.32,34.32,0,0,1,10.61,1.66C46.06-5.37,59.84.13,59.84.13c14.89,4.82,2.4,52.12.66,58.41,7.27,4.3,12,11.31,12,19.22,0,9.74-7.16,18.1-17.39,21.74l.22.69c2.77,1.56,9.76,5.76,10.13,8.77,0,0,.39,3.5-8.4-2.61,2.61,10.3,5.56,27.49-1.45,34.51,0,0-3.28,1.88-2.81-6.1,0,0-5.63,4.22-9.38,3.75-3.75.47-9.38-3.75-9.38-3.75.47,8-2.81,6.1-2.81,6.1-7-7-4.06-24.21-1.45-34.51-8.79,6.11-8.4,2.61-8.4,2.61.38-3,7.36-7.21,10.13-8.77l.27-.84C21.77,95.62,14.8,87.36,14.8,77.76Z"/><ellipse class="cls-2" cx="43.42" cy="115.75" rx="7.04" ry="14.78"/><circle class="cls-3" cx="51.16" cy="70.72" r="2.35"/><circle class="cls-3" cx="36.15" cy="70.72" r="2.35"/></g></g></svg>