<svg xmlns="http://www.w3.org/2000/svg" viewBox="0 0 86.5 168.28"><defs><style>.cls-1{fill:#fff;}.cls-2{fill:#f1f1f2;}.cls-3{fill:#4f443c;}</style></defs><title>Asset 24</title><g id="Layer_2" data-name="Layer 2"><g id="Bunny"><path class="cls-1" d="M17.66,92.78c0-10.28,6.68-19.27,16.68-24.22C-16.64,10.2,4.23,8,4.23,8,26.32,8,40.39,57.48,42.55,65.62a41.44,41.44,0,0,1,9.53-1.11,41,41,0,0,1,12.66,2C55-6.41,71.39.15,71.39.15c17.76,5.75,2.86,62.19.79,69.69C80.85,75,86.5,83.33,86.5,92.78c0,11.62-8.54,21.59-20.74,25.94l.26.82c3.31,1.86,11.64,6.87,12.09,10.46,0,0,.46,4.17-10-3.11,3.12,12.29,6.64,32.8-1.73,41.17,0,0-3.92,2.24-3.36-7.28,0,0-6.72,5-11.19,4.48-4.48.56-11.19-4.48-11.19-4.48.56,9.51-3.36,7.28-3.36,7.28-8.37-8.37-4.85-28.88-1.73-41.17C25,134.16,25.5,130,25.5,130c.45-3.58,8.78-8.6,12.09-10.46l.32-1C26,114.09,17.66,104.23,17.66,92.78Z"/><ellipse class="cls-2" cx="51.8" cy="138.11" rx="8.39" ry="17.63"/><circle class="cls-3" cx="61.04" cy="84.38" r="2.8"/><circle class="cls-3" cx="43.13" cy="84.38" r="2.8"/></g></g></svg>