<svg xmlns="http://www.w3.org/2000/svg" viewBox="0 0 79.5 154.66"><defs><style>.cls-1{fill:#fff;}.cls-2{fill:#f1f1f2;}.cls-3{fill:#4f443c;}</style></defs><title>Asset 23</title><g id="Layer_2" data-name="Layer 2"><g id="Bunny"><path class="cls-1" d="M63.27,85.27c0-9.45-6.14-17.71-15.33-22.26C94.8,9.37,75.61,7.34,75.61,7.34c-20.3,0-33.23,45.49-35.22,53a38.09,38.09,0,0,0-8.76-1A37.63,37.63,0,0,0,20,61.11c9-67-6.11-61-6.11-61-16.32,5.28-2.63,57.15-.73,64C5.19,68.9,0,76.59,0,85.27c0,10.68,7.85,19.85,19.06,23.84l-.24.75c-3,1.71-10.7,6.32-11.11,9.61,0,0-.42,3.83,9.21-2.86-2.86,11.29-6.1,30.15,1.59,37.84,0,0,3.6,2.06,3.09-6.69,0,0,6.17,4.63,10.29,4.11,4.11.51,10.29-4.11,10.29-4.11-.51,8.74,3.09,6.69,3.09,6.69,7.69-7.69,4.45-26.54,1.59-37.84,9.63,6.69,9.21,2.86,9.21,2.86-.41-3.29-8.07-7.9-11.11-9.61l-.29-.92C55.63,104.86,63.27,95.8,63.27,85.27Z"/><ellipse class="cls-2" cx="31.89" cy="126.93" rx="7.72" ry="16.2"/><circle class="cls-3" cx="23.4" cy="77.55" r="2.57"/><circle class="cls-3" cx="39.86" cy="77.55" r="2.57"/></g></g></svg>