<svg xmlns="http://www.w3.org/2000/svg" viewBox="0 0 105.5 205.24"><defs><style>.cls-1{fill:#fff;}.cls-2{fill:#f1f1f2;}.cls-3{fill:#4f443c;}</style></defs><title>Asset 25</title><g id="Layer_2" data-name="Layer 2"><g id="Bunny"><path class="cls-1" d="M84,113.15c0-12.54-8.15-23.51-20.34-29.54C125.8,12.44,100.34,9.74,100.34,9.74,73.4,9.74,56.24,70.11,53.6,80A50.54,50.54,0,0,0,42,78.68,49.94,49.94,0,0,0,26.54,81.1C38.47-7.82,18.43.19,18.43.19c-21.66,7-3.49,75.84-1,85C6.89,91.44,0,101.63,0,113.15c0,14.17,10.42,26.34,25.3,31.64l-.31,1c-4,2.27-14.2,8.39-14.75,12.76,0,0-.56,5.09,12.23-3.8-3.8,15-8.1,40,2.11,50.21,0,0,4.78,2.73,4.1-8.87,0,0,8.19,6.14,13.65,5.46,5.46.68,13.65-5.46,13.65-5.46-.68,11.6,4.1,8.87,4.1,8.87,10.21-10.21,5.91-35.22,2.11-50.21,12.79,8.88,12.23,3.8,12.23,3.8-.55-4.37-10.71-10.49-14.75-12.76l-.39-1.23C73.82,139.15,84,127.13,84,113.15Z"/><ellipse class="cls-2" cx="42.32" cy="168.44" rx="10.24" ry="21.5"/><circle class="cls-3" cx="31.06" cy="102.91" r="3.41"/><circle class="cls-3" cx="52.9" cy="102.91" r="3.41"/></g></g></svg>