<svg xmlns="http://www.w3.org/2000/svg" viewBox="0 0 251 146.62"><defs><style>.cls-1{fill:#fff;}</style></defs><title>Asset 20</title><g id="Layer_2" data-name="Layer 2"><g id="Clouds"><path class="cls-1" d="M36,106.06a43.57,43.57,0,0,0,8.8,1.16c3.61,16.07,22.05,31.66,45.89,37.3,21.78,5.15,41.72.49,51.08-10.51a49,49,0,0,0,9,3.1c16.49,3.9,31.91-1.48,39.7-12.47a38,38,0,0,0,20.2,5.84C233,130.48,251,111.08,251,87.16s-18-43.32-40.29-43.32a37.81,37.81,0,0,0-5.48.41c2.34-18.72-13-37.87-34.62-43C151.16-3.34,133.19,5,127.48,20.21A54.55,54.55,0,0,0,102,6,47.22,47.22,0,0,0,51.35,25.75c-1.09-.35-2.2-.67-3.33-.94C25.06,19.38,3.75,33.17.44,55.6S13,100.63,36,106.06Z"/></g></g></svg>