<svg xmlns="http://www.w3.org/2000/svg" viewBox="0 0 278 124.62"><defs><style>.cls-1{fill:#fff;}</style></defs><title>Asset 21</title><g id="Layer_2" data-name="Layer 2"><g id="Clouds"><path class="cls-1" d="M39.88,90.15a62.16,62.16,0,0,0,9.74,1c4,13.66,24.42,26.91,50.83,31.7,24.12,4.38,46.21.42,56.57-8.94a66.07,66.07,0,0,0,10,2.64c18.26,3.31,35.34-1.26,44-10.6a51.81,51.81,0,0,0,22.37,5C258,110.9,278,94.41,278,74.08s-20-36.82-44.63-36.82a54.35,54.35,0,0,0-6.06.35C229.9,21.69,212.91,5.42,189,1.07c-21.55-3.91-41.44,3.16-47.77,16.1A67.12,67.12,0,0,0,113,5.12C90.48,1,69,8.14,56.88,21.88c-1.21-.3-2.44-.57-3.69-.8-25.43-4.62-49,7.1-52.7,26.17S14.45,85.53,39.88,90.15Z"/></g></g></svg>