<svg xmlns="http://www.w3.org/2000/svg" viewBox="0 0 248 114.54"><defs><style>.cls-1{fill:#fff;}</style></defs><title>Asset 22</title><g id="Layer_2" data-name="Layer 2"><g id="Clouds"><path class="cls-1" d="M212.42,31.68a53.87,53.87,0,0,0-8.69-.91C200.16,18.22,181.94,6,158.38,1.64c-21.52-4-41.22-.39-50.47,8.21A57.56,57.56,0,0,0,99,7.43c-16.29-3-31.52,1.16-39.23,9.74a45.09,45.09,0,0,0-20-4.56C17.82,12.61,0,27.76,0,46.45S17.82,80.29,39.81,80.29A47.07,47.07,0,0,0,45.22,80c-2.31,14.63,12.85,29.58,34.21,33.58,19.22,3.59,37-2.91,42.61-14.8a59,59,0,0,0,25.16,11.08c20.09,3.76,39.26-2.77,50.06-15.41,1.08.27,2.18.52,3.29.73,22.69,4.24,43.74-6.53,47-24.06S235.11,35.92,212.42,31.68Z"/></g></g></svg>