<svg xmlns="http://www.w3.org/2000/svg" viewBox="0 0 167.54 319.88"><defs><style>.cls-1{fill:#fc4f4f;}.cls-2{fill:#fff;}.cls-3{fill:#ed1d1d;}.cls-4,.cls-6,.cls-7{fill:none;stroke-miterlimit:10;}.cls-4{stroke:#fff;stroke-width:1.93px;}.cls-5{opacity:0.12;}.cls-6{stroke:#594a42;stroke-width:1.52px;}.cls-7{stroke:#fcee21;stroke-width:3.4px;}</style></defs><title>Asset 13</title><g id="Layer_2" data-name="Layer 2"><g id="Lantern"><path class="cls-1" d="M92.47,319.88c-13.71-36.42-2.51-54.3-2-55L95.32,268c-.1.16-10,16.45,2.58,49.85Z"/><path class="cls-2" d="M105,318.67c-22.45-31.79-16.12-51.91-15.84-52.75l5.5,1.82c-.06.18-5.52,18.44,15.07,47.59Z"/><path class="cls-3" d="M115.1,312.74c-27.85-27.17-25.29-48.11-25.16-49l5.74.78c0,.19-2.08,19.14,23.47,44.06Z"/><path class="cls-4" d="M86.61,220.58s-.82,28.13,6.88,50.67"/><path class="cls-3" d="M101.1,263.34c.46,4.73-3.74,9-9.38,9.57s-10.6-2.84-11.06-7.58,3.74-9,9.38-9.57S100.64,258.61,101.1,263.34Z"/><g id="_Group_" data-name="&lt;Group&gt;"><g id="_Group_2" data-name="&lt;Group&gt;"><g id="_Group_3" data-name="&lt;Group&gt;"><g id="_Group_4" data-name="&lt;Group&gt;"><rect id="_Path_" data-name="&lt;Path&gt;" class="cls-3" x="40.55" y="55.38" width="40.13" height="15.4" transform="translate(-2.32 2.32) rotate(-2.15)"/></g></g></g><g id="_Group_5" data-name="&lt;Group&gt;"><g id="_Group_6" data-name="&lt;Group&gt;"><g id="_Group_7" data-name="&lt;Group&gt;"><path id="_Path_2" data-name="&lt;Path&gt;" class="cls-3" d="M86.51,218l.72,19.34-40.1,1.5-.47-12.59C46.52,222.54,64.36,218.84,86.51,218Z"/></g></g></g><g id="_Group_8" data-name="&lt;Group&gt;"><g id="_Group_9" data-name="&lt;Group&gt;"><g id="_Group_10" data-name="&lt;Group&gt;"><polygon id="_Path_3" data-name="&lt;Path&gt;" class="cls-1" points="86.22 210.28 27.27 212.5 35.63 199.55 85.75 197.67 86.22 210.28"/></g></g></g><g id="_Group_11" data-name="&lt;Group&gt;"><g id="_Group_12" data-name="&lt;Group&gt;"><g id="_Group_13" data-name="&lt;Group&gt;"><polygon id="_Path_4" data-name="&lt;Path&gt;" class="cls-1" points="85.08 179.93 9.77 182.75 21.74 166.5 84.49 164.14 85.08 179.93"/></g></g></g><g id="_Group_14" data-name="&lt;Group&gt;"><g id="_Group_15" data-name="&lt;Group&gt;"><g id="_Group_16" data-name="&lt;Group&gt;"><polygon id="_Path_5" data-name="&lt;Path&gt;" class="cls-1" points="83.75 144.55 0 147.69 20.35 129.47 83.1 127.12 83.75 144.55"/></g></g></g><g id="_Group_17" data-name="&lt;Group&gt;"><g id="_Group_18" data-name="&lt;Group&gt;"><g id="_Group_19" data-name="&lt;Group&gt;"><polygon id="_Path_6" data-name="&lt;Path&gt;" class="cls-1" points="82.51 111.33 7.2 114.16 31.73 95.47 81.84 93.58 82.51 111.33"/></g></g></g><g id="_Group_20" data-name="&lt;Group&gt;"><g id="_Group_21" data-name="&lt;Group&gt;"><g id="_Group_22" data-name="&lt;Group&gt;"><polygon id="_Path_7" data-name="&lt;Path&gt;" class="cls-1" points="81.37 80.97 22.41 83.19 40.89 68.3 80.84 66.8 81.37 80.97"/></g></g></g><g id="_Group_23" data-name="&lt;Group&gt;"><g id="_Group_24" data-name="&lt;Group&gt;"><g id="_Group_25" data-name="&lt;Group&gt;"><polygon id="_Path_8" data-name="&lt;Path&gt;" class="cls-3" points="86.22 210.28 86.75 224.46 46.8 225.96 27.27 212.5 86.22 210.28"/></g></g></g><g id="_Group_26" data-name="&lt;Group&gt;"><g id="_Group_27" data-name="&lt;Group&gt;"><g id="_Group_28" data-name="&lt;Group&gt;"><polygon id="_Path_9" data-name="&lt;Path&gt;" class="cls-3" points="85.08 179.93 85.75 197.67 35.63 199.55 9.77 182.75 85.08 179.93"/></g></g></g><g id="_Group_29" data-name="&lt;Group&gt;"><g id="_Group_30" data-name="&lt;Group&gt;"><g id="_Group_31" data-name="&lt;Group&gt;"><polygon id="_Path_10" data-name="&lt;Path&gt;" class="cls-3" points="83.75 144.55 84.49 164.14 21.74 166.5 0 147.69 83.75 144.55"/></g></g></g><g id="_Group_32" data-name="&lt;Group&gt;"><g id="_Group_33" data-name="&lt;Group&gt;"><g id="_Group_34" data-name="&lt;Group&gt;"><polygon id="_Path_11" data-name="&lt;Path&gt;" class="cls-3" points="82.51 111.33 83.1 127.12 20.35 129.47 7.2 114.16 82.51 111.33"/></g></g></g><g id="_Group_35" data-name="&lt;Group&gt;"><g id="_Group_36" data-name="&lt;Group&gt;"><g id="_Group_37" data-name="&lt;Group&gt;"><polygon id="_Path_12" data-name="&lt;Path&gt;" class="cls-3" points="81.37 80.97 81.84 93.58 31.73 95.47 22.41 83.19 81.37 80.97"/></g></g></g><g id="_Group_38" data-name="&lt;Group&gt;"><g id="_Group_39" data-name="&lt;Group&gt;"><g id="_Group_40" data-name="&lt;Group&gt;"><rect id="_Path_13" data-name="&lt;Path&gt;" class="cls-3" x="80.68" y="53.87" width="40.13" height="15.4" transform="matrix(1, -0.04, 0.04, 1, -2.24, 3.82)"/></g></g></g><g id="_Group_41" data-name="&lt;Group&gt;"><g id="_Group_42" data-name="&lt;Group&gt;"><g id="_Group_43" data-name="&lt;Group&gt;"><path id="_Path_14" data-name="&lt;Path&gt;" class="cls-3" d="M86.54,218l.72,19.34,40.11-1.5-.47-12.59C126.76,219.53,108.69,217.17,86.54,218Z"/></g></g></g><g id="_Group_44" data-name="&lt;Group&gt;"><g id="_Group_45" data-name="&lt;Group&gt;"><g id="_Group_46" data-name="&lt;Group&gt;"><polygon id="_Path_15" data-name="&lt;Path&gt;" class="cls-1" points="86.25 210.28 145.2 208.07 135.89 195.79 85.78 197.67 86.25 210.28"/></g></g></g><g id="_Group_47" data-name="&lt;Group&gt;"><g id="_Group_48" data-name="&lt;Group&gt;"><g id="_Group_49" data-name="&lt;Group&gt;"><polygon id="_Path_16" data-name="&lt;Path&gt;" class="cls-1" points="85.11 179.92 160.42 177.1 147.26 161.78 84.52 164.14 85.11 179.92"/></g></g></g><g id="_Group_50" data-name="&lt;Group&gt;"><g id="_Group_51" data-name="&lt;Group&gt;"><g id="_Group_52" data-name="&lt;Group&gt;"><polygon id="_Path_17" data-name="&lt;Path&gt;" class="cls-1" points="83.78 144.55 167.53 141.4 145.88 124.76 83.13 127.12 83.78 144.55"/></g></g></g><g id="_Group_53" data-name="&lt;Group&gt;"><g id="_Group_54" data-name="&lt;Group&gt;"><g id="_Group_55" data-name="&lt;Group&gt;"><polygon id="_Path_18" data-name="&lt;Path&gt;" class="cls-1" points="82.54 111.33 157.84 108.5 131.99 91.7 81.87 93.58 82.54 111.33"/></g></g></g><g id="_Group_56" data-name="&lt;Group&gt;"><g id="_Group_57" data-name="&lt;Group&gt;"><g id="_Group_58" data-name="&lt;Group&gt;"><polygon id="_Path_19" data-name="&lt;Path&gt;" class="cls-1" points="81.4 80.97 140.35 78.76 120.81 65.3 80.86 66.8 81.4 80.97"/></g></g></g><g id="_Group_59" data-name="&lt;Group&gt;"><g id="_Group_60" data-name="&lt;Group&gt;"><g id="_Group_61" data-name="&lt;Group&gt;"><polygon id="_Path_20" data-name="&lt;Path&gt;" class="cls-3" points="86.25 210.28 86.78 224.46 126.73 222.96 145.2 208.07 86.25 210.28"/></g></g></g><g id="_Group_62" data-name="&lt;Group&gt;"><g id="_Group_63" data-name="&lt;Group&gt;"><g id="_Group_64" data-name="&lt;Group&gt;"><polygon id="_Path_21" data-name="&lt;Path&gt;" class="cls-3" points="85.11 179.92 85.78 197.67 135.89 195.79 160.42 177.1 85.11 179.92"/></g></g></g><g id="_Group_65" data-name="&lt;Group&gt;"><g id="_Group_66" data-name="&lt;Group&gt;"><g id="_Group_67" data-name="&lt;Group&gt;"><polygon id="_Path_22" data-name="&lt;Path&gt;" class="cls-3" points="83.78 144.55 84.52 164.14 147.26 161.78 167.53 141.4 83.78 144.55"/></g></g></g><g id="_Group_68" data-name="&lt;Group&gt;"><g id="_Group_69" data-name="&lt;Group&gt;"><g id="_Group_70" data-name="&lt;Group&gt;"><polygon id="_Path_23" data-name="&lt;Path&gt;" class="cls-3" points="82.54 111.33 83.13 127.12 145.88 124.76 157.84 108.5 82.54 111.33"/></g></g></g><g id="_Group_71" data-name="&lt;Group&gt;"><g id="_Group_72" data-name="&lt;Group&gt;"><g id="_Group_73" data-name="&lt;Group&gt;"><polygon id="_Path_24" data-name="&lt;Path&gt;" class="cls-3" points="81.4 80.97 81.87 93.58 131.99 91.7 140.35 78.76 81.4 80.97"/></g></g></g><g id="_Group_74" data-name="&lt;Group&gt;" class="cls-5"><g id="_Group_75" data-name="&lt;Group&gt;"><g id="_Group_76" data-name="&lt;Group&gt;"><path id="_Path_25" data-name="&lt;Path&gt;" class="cls-2" d="M120.51,53.13,121,65.41l19.37,13.35L132,91.7l25.86,16.8-12,16.26,21.66,16.64-20.27,20.38,13.16,15.31-24.53,18.69,9.31,12.28-18.42,14.85a1.25,1.25,0,0,1,.12.34l.47,12.59-40.11,1.5-.48-12.89L86.54,218l-.29-7.72-.47-12.61-.67-17.75-.59-15.79-.73-19.59-.65-17.43-.59-15.79-.67-17.75L81.4,81,81,70l-.12-3.23-.46-12.17Z"/></g></g></g></g><path class="cls-6" d="M116.45,53.19s-39.33-118.7-75,1.13"/><path class="cls-7" d="M59.9,125.66l10.2-.13-.17-13.6S49.62,119,46.48,139.43l37.4-.48-.35-27.2"/><path class="cls-7" d="M107.5,125.06l-10.2.13-.17-13.6s20.48,6.54,24.14,26.9l-37.4.48-.35-27.2"/><path class="cls-7" d="M108,162.45l-10.2.13.17,13.6s20.31-7.06,23.45-27.5l-37.4.48.35,27.2"/><path class="cls-7" d="M60.38,163.06l10.2-.13.17,13.6S50.27,170,46.61,149.63l37.4-.48.35,27.2"/><circle class="cls-7" cx="83.94" cy="144.06" r="51" transform="translate(-1.82 1.08) rotate(-0.73)"/></g></g></svg>