<svg xmlns="http://www.w3.org/2000/svg" viewBox="0 0 149.6 313.88"><defs><style>.cls-1,.cls-5,.cls-8{fill:none;stroke-miterlimit:10;}.cls-1{stroke:#594a42;stroke-width:1.93px;}.cls-2{fill:#fff;}.cls-3{fill:#ffb266;}.cls-4{fill:#f96c0d;}.cls-5{stroke:#fff;stroke-width:1.93px;}.cls-6{fill:#fc8e0b;}.cls-7{opacity:0.12;}.cls-8{stroke:#fcee21;stroke-width:3.4px;}</style></defs><title>Asset 11</title><g id="Layer_2" data-name="Layer 2"><g id="Lantern"><path class="cls-1" d="M112.27,25.94S72.69-30.26,36,25.94"/><path class="cls-2" d="M80.72,313.88c-13.16-36.62-1.69-54.33-1.2-55.06L84.34,262c-.1.16-10.24,16.3,1.83,49.89Z"/><path class="cls-3" d="M93.3,312.85c-22-32.12-15.34-52.14-15-53l5.47,1.9c-.06.18-5.79,18.36,14.36,47.81Z"/><path class="cls-4" d="M103.45,307.08C76,279.49,78.89,258.59,79,257.72l5.73.87c0,.19-2.36,19.1,22.81,44.41Z"/><path class="cls-5" d="M76.25,210.44s-1.15,32.18,6.22,54.83"/><ellipse class="cls-4" cx="79.96" cy="258.32" rx="10.27" ry="8.61" transform="translate(-20.96 7.45) rotate(-4.71)"/><ellipse class="cls-4" cx="77.31" cy="230.92" rx="7.05" ry="5.91" transform="translate(-18.74 7.14) rotate(-4.72)"/><g id="_Group_" data-name="&lt;Group&gt;"><g id="_Group_2" data-name="&lt;Group&gt;"><g id="_Group_3" data-name="&lt;Group&gt;"><g id="_Group_4" data-name="&lt;Group&gt;"><polygon id="_Path_" data-name="&lt;Path&gt;" class="cls-4" points="72.66 24.72 72.69 24.72 121.36 23.63 121.66 37.1 72.99 38.2 72.96 38.2 24.28 39.3 23.98 25.82 72.66 24.72"/></g></g></g><g id="_Group_5" data-name="&lt;Group&gt;"><g id="_Group_6" data-name="&lt;Group&gt;"><g id="_Group_7" data-name="&lt;Group&gt;"><polygon id="_Path_2" data-name="&lt;Path&gt;" class="cls-4" points="76.58 199.24 76.61 199.24 125.29 198.15 125.59 211.62 76.92 212.72 76.88 212.72 28.21 213.81 27.91 200.33 76.58 199.24"/></g></g></g><g id="_Group_8" data-name="&lt;Group&gt;"><g id="_Group_9" data-name="&lt;Group&gt;"><g id="_Group_10" data-name="&lt;Group&gt;"><g id="_Group_11" data-name="&lt;Group&gt;"><polygon id="_Path_3" data-name="&lt;Path&gt;" class="cls-3" points="19.48 103.23 74.43 101.99 74.77 117.25 1.44 118.9 19.48 103.23"/></g></g></g><g id="_Group_12" data-name="&lt;Group&gt;"><g id="_Group_13" data-name="&lt;Group&gt;"><g id="_Group_14" data-name="&lt;Group&gt;"><polygon id="_Path_4" data-name="&lt;Path&gt;" class="cls-3" points="148.14 115.6 74.8 117.25 74.46 101.99 129.4 100.76 148.14 115.6"/></g></g></g></g><g id="_Group_15" data-name="&lt;Group&gt;"><g id="_Group_16" data-name="&lt;Group&gt;"><g id="_Group_17" data-name="&lt;Group&gt;"><g id="_Group_18" data-name="&lt;Group&gt;"><polygon id="_Path_5" data-name="&lt;Path&gt;" class="cls-6" points="74.77 117.25 75.16 134.41 20.21 135.65 1.44 118.9 74.77 117.25"/></g></g></g><g id="_Group_19" data-name="&lt;Group&gt;"><g id="_Group_20" data-name="&lt;Group&gt;"><g id="_Group_21" data-name="&lt;Group&gt;"><polygon id="_Path_6" data-name="&lt;Path&gt;" class="cls-6" points="130.13 133.17 75.19 134.41 74.8 117.25 148.14 115.6 130.13 133.17"/></g></g></g></g><g id="_Group_22" data-name="&lt;Group&gt;"><g id="_Group_23" data-name="&lt;Group&gt;"><g id="_Group_24" data-name="&lt;Group&gt;"><g id="_Group_25" data-name="&lt;Group&gt;"><polygon id="_Path_7" data-name="&lt;Path&gt;" class="cls-3" points="20.21 135.65 75.16 134.41 75.5 149.67 2.16 151.32 20.21 135.65"/></g></g></g><g id="_Group_26" data-name="&lt;Group&gt;"><g id="_Group_27" data-name="&lt;Group&gt;"><g id="_Group_28" data-name="&lt;Group&gt;"><polygon id="_Path_8" data-name="&lt;Path&gt;" class="cls-3" points="148.87 148.02 75.53 149.67 75.19 134.41 130.13 133.17 148.87 148.02"/></g></g></g></g><g id="_Group_29" data-name="&lt;Group&gt;"><g id="_Group_30" data-name="&lt;Group&gt;"><g id="_Group_31" data-name="&lt;Group&gt;"><g id="_Group_32" data-name="&lt;Group&gt;"><polygon id="_Path_9" data-name="&lt;Path&gt;" class="cls-6" points="75.5 149.67 75.89 166.82 20.94 168.06 2.16 151.32 75.5 149.67"/></g></g></g><g id="_Group_33" data-name="&lt;Group&gt;"><g id="_Group_34" data-name="&lt;Group&gt;"><g id="_Group_35" data-name="&lt;Group&gt;"><polygon id="_Path_10" data-name="&lt;Path&gt;" class="cls-6" points="130.86 165.59 75.92 166.82 75.53 149.67 148.87 148.02 130.86 165.59"/></g></g></g></g><g id="_Group_36" data-name="&lt;Group&gt;"><g id="_Group_37" data-name="&lt;Group&gt;"><g id="_Group_38" data-name="&lt;Group&gt;"><g id="_Group_39" data-name="&lt;Group&gt;"><polygon id="_Path_11" data-name="&lt;Path&gt;" class="cls-3" points="24.24 39.3 73 38.2 73.34 53.46 0 55.11 24.24 39.3"/></g></g></g><g id="_Group_40" data-name="&lt;Group&gt;"><g id="_Group_41" data-name="&lt;Group&gt;"><g id="_Group_42" data-name="&lt;Group&gt;"><polygon id="_Path_12" data-name="&lt;Path&gt;" class="cls-3" points="146.7 51.81 73.37 53.46 73.02 38.2 121.78 37.1 146.7 51.81"/></g></g></g></g><g id="_Group_43" data-name="&lt;Group&gt;"><g id="_Group_44" data-name="&lt;Group&gt;"><g id="_Group_45" data-name="&lt;Group&gt;"><g id="_Group_46" data-name="&lt;Group&gt;"><polygon id="_Path_13" data-name="&lt;Path&gt;" class="cls-6" points="73.34 53.46 73.72 70.61 18.78 71.85 0 55.11 73.34 53.46"/></g></g></g><g id="_Group_47" data-name="&lt;Group&gt;"><g id="_Group_48" data-name="&lt;Group&gt;"><g id="_Group_49" data-name="&lt;Group&gt;"><polygon id="_Path_14" data-name="&lt;Path&gt;" class="cls-6" points="128.7 69.38 73.75 70.61 73.37 53.46 146.7 51.81 128.7 69.38"/></g></g></g></g><g id="_Group_50" data-name="&lt;Group&gt;"><g id="_Group_51" data-name="&lt;Group&gt;"><g id="_Group_52" data-name="&lt;Group&gt;"><g id="_Group_53" data-name="&lt;Group&gt;"><polygon id="_Path_15" data-name="&lt;Path&gt;" class="cls-3" points="18.78 71.85 73.72 70.61 74.07 85.88 0.73 87.53 18.78 71.85"/></g></g></g><g id="_Group_54" data-name="&lt;Group&gt;"><g id="_Group_55" data-name="&lt;Group&gt;"><g id="_Group_56" data-name="&lt;Group&gt;"><polygon id="_Path_16" data-name="&lt;Path&gt;" class="cls-3" points="147.43 84.23 74.09 85.88 73.75 70.61 128.7 69.38 147.43 84.23"/></g></g></g></g><g id="_Group_57" data-name="&lt;Group&gt;"><g id="_Group_58" data-name="&lt;Group&gt;"><g id="_Group_59" data-name="&lt;Group&gt;"><polygon id="_Path_17" data-name="&lt;Path&gt;" class="cls-6" points="74.07 85.88 74.45 103.03 19.51 104.27 0.73 87.53 74.07 85.88"/></g></g></g><g id="_Group_60" data-name="&lt;Group&gt;"><g id="_Group_61" data-name="&lt;Group&gt;"><g id="_Group_62" data-name="&lt;Group&gt;"><polygon id="_Path_18" data-name="&lt;Path&gt;" class="cls-6" points="129.43 101.79 74.48 103.03 74.09 85.88 147.43 84.23 129.43 101.79"/></g></g></g><g id="_Group_63" data-name="&lt;Group&gt;"><g id="_Group_64" data-name="&lt;Group&gt;"><g id="_Group_65" data-name="&lt;Group&gt;"><g id="_Group_66" data-name="&lt;Group&gt;"><polygon id="_Path_19" data-name="&lt;Path&gt;" class="cls-3" points="20.94 168.06 75.89 166.82 76.23 182.08 2.89 183.73 20.94 168.06"/></g></g></g><g id="_Group_67" data-name="&lt;Group&gt;"><g id="_Group_68" data-name="&lt;Group&gt;"><g id="_Group_69" data-name="&lt;Group&gt;"><polygon id="_Path_20" data-name="&lt;Path&gt;" class="cls-3" points="149.6 180.43 76.26 182.08 75.92 166.82 130.86 165.59 149.6 180.43"/></g></g></g></g><g id="_Group_70" data-name="&lt;Group&gt;"><g id="_Group_71" data-name="&lt;Group&gt;"><g id="_Group_72" data-name="&lt;Group&gt;"><g id="_Group_73" data-name="&lt;Group&gt;"><polygon id="_Path_21" data-name="&lt;Path&gt;" class="cls-6" points="76.23 182.08 76.62 199.24 27.91 200.33 2.89 183.73 76.23 182.08"/></g></g></g><g id="_Group_74" data-name="&lt;Group&gt;"><g id="_Group_75" data-name="&lt;Group&gt;"><g id="_Group_76" data-name="&lt;Group&gt;"><polygon id="_Path_22" data-name="&lt;Path&gt;" class="cls-6" points="125.29 198.15 76.64 199.24 76.26 182.08 149.6 180.43 125.29 198.15"/></g></g></g></g><g id="_Group_77" data-name="&lt;Group&gt;" class="cls-7"><g id="_Group_78" data-name="&lt;Group&gt;"><g id="_Group_79" data-name="&lt;Group&gt;"><polygon id="_Path_23" data-name="&lt;Path&gt;" class="cls-2" points="75.92 166.82 75.53 149.67 75.19 134.41 74.8 117.25 74.48 103.03 74.46 101.99 74.09 85.88 73.75 70.61 73.37 53.46 73.02 38.2 72.99 38.2 72.69 24.72 121.36 23.63 121.66 37.1 146.7 51.81 128.7 69.38 147.43 84.23 130 101.23 148.14 115.6 130.13 133.17 148.87 148.02 130.86 165.59 149.6 180.43 125.29 198.15 125.59 211.62 76.92 212.72 76.61 199.24 76.64 199.24 76.26 182.08 75.92 166.82"/></g></g></g></g><path class="cls-8" d="M52.82,104.88l10.2-.15-.2-13.6s-20.3,7.1-23.39,27.55l37.4-.55-.4-27.2"/><path class="cls-8" d="M100.42,104.18l-10.2.15L90,90.73s20.5,6.5,24.2,26.84l-37.4.55-.4-27.2"/><path class="cls-8" d="M101,141.57l-10.2.15.2,13.6s20.3-7.1,23.39-27.55l-37.4.55.4,27.2"/><path class="cls-8" d="M53.38,142.28l10.2-.15.2,13.6s-20.5-6.5-24.2-26.84l37.4-.55.4,27.2"/><circle class="cls-8" cx="76.9" cy="123.23" r="51" transform="translate(-1.82 1.15) rotate(-0.85)"/></g></g></svg>