<svg xmlns="http://www.w3.org/2000/svg" viewBox="0 0 183.07 284.26"><defs><style>.cls-1,.cls-10,.cls-11,.cls-2{fill:none;}.cls-1{stroke:#594a42;stroke-width:1.52px;}.cls-1,.cls-10,.cls-11{stroke-miterlimit:10;}.cls-3{fill:#f2c300;}.cls-4{fill:#ffde55;}.cls-5{fill:#ffd939;}.cls-6{fill:#ffd41f;}.cls-7{fill:#ffda40;}.cls-8{fill:#ffe67b;}.cls-9{fill:#ffbb12;}.cls-10{stroke:#fff;stroke-width:1.93px;}.cls-11{stroke:#fbb03b;stroke-width:3.77px;}</style></defs><title>Asset 10</title><g id="Layer_2" data-name="Layer 2"><g id="Lantern"><path class="cls-1" d="M115.13,25S93-29.48,67.43,25"/><path class="cls-2" d="M183,109.14c0-.77.06-1.54.06-2.32,0,0,0-.1,0-.15s0-.07,0-.11c0-32-24.5-59.27-58.81-69.87l-.47-.4c-1.06-.33-2.1-.69-3.18-1,.21.16.4.33.6.5h0l.28.23a107.3,107.3,0,0,0-14.38-3l-.38-.06a111.54,111.54,0,0,0-13.22-1c-.7,0-1.39,0-2.09,0h-.6A113,113,0,0,0,76.1,33l-.48.08q-1.92.28-3.81.61l-.93.18c-1.16.22-2.3.45-3.44.7l-.61.14q-1.89.43-3.75.93l-.28.08-1.45.4.28-.24C30.87,44.47,7.52,66.29,1.52,93.11l-.08.36q-.29,1.34-.52,2.7c0,.25-.09.49-.13.74S.67,97.62.63,98c0,.14,0,.28-.05.42,0,.3-.07.6-.11.89s-.08.64-.12,1,0,.39-.07.59c-.05.56-.08,1.13-.12,1.7,0,.34-.06.68-.07,1,0,.07,0,.15,0,.22,0,1-.07,2-.07,3,0,.22,0,.44,0,.66,0,.86,0,1.73.08,2.59,0,.39.06.78.09,1.18.05.71.11,1.42.18,2.12,0,.37.09.74.14,1.1.09.75.19,1.49.31,2.23,0,.29.1.59.15.88q.22,1.27.5,2.53l.12.52c6.11,26.77,29.51,48.49,60.27,57l-.29-.24a108.05,108.05,0,0,0,14.5,3l.26.29a112.11,112.11,0,0,0,14.73,1h.6A111.41,111.41,0,0,0,107,180.65c42.13-5.86,74.44-35.23,76-71C183,109.49,183,109.32,183,109.14Z"/><path class="cls-3" d="M183,109.14c0-.77.06-1.55.06-2.32,0-.05,0-.1,0-.15s0-.07,0-.11c0-33-25.95-60.86-61.85-70.76.25.19.48.41.73.6a108.12,108.12,0,0,0-15.21-3.2,112.16,112.16,0,0,0-15.31-1h-.6a111.58,111.58,0,0,0-14.72,1.08c-8.66,1.84-10,1.52-14.75,2.87l.28-.24C30.87,44.47,7.52,66.29,1.52,93.11l-.08.36q-.29,1.34-.52,2.7c0,.25-.09.49-.13.74C.67,97.7.56,98.5.46,99.3c0,.32-.08.64-.12,1-.08.75-.13,1.51-.18,2.27,0,.35-.06.7-.08,1,0,.9-.07,1.81-.07,2.73,0,.18,0,.36,0,.54s0,.44,0,.65c0,.87,0,1.73.08,2.59,0,.39.06.78.09,1.18.05.71.11,1.41.18,2.12,0,.37.09.73.14,1.1.09.75.19,1.49.32,2.23,0,.29.1.59.15.88q.22,1.27.5,2.53l.12.52c6.11,26.77,29.51,48.49,60.27,57l-.29-.24a107.74,107.74,0,0,0,14.5,3l.26.29a112.11,112.11,0,0,0,14.73,1h.6A111.41,111.41,0,0,0,107,180.65c42.13-5.86,74.44-35.23,76-71C183,109.49,183,109.32,183,109.14Z"/><path class="cls-4" d="M76.11,33.25c-12.42,12.93-21,41.09-21,73.76s8.72,60.79,21.17,73.7a112.11,112.11,0,0,0,14.73,1L90.83,32.17A111.58,111.58,0,0,0,76.11,33.25Z"/><path class="cls-5" d="M107,180.65c12.42-12.94,21-41.1,21-73.76s-8.72-60.8-21.18-73.7a112.16,112.16,0,0,0-15.31-1h-.6l.23,149.56h.6A111.41,111.41,0,0,0,107,180.65Z"/><path class="cls-6" d="M76.11,33C32.86,39-.05,69.8,0,106.84s33.06,67.71,76.33,73.61c-12.45-12.9-21.13-41-21.17-73.69S63.69,45.94,76.11,33Z"/><path class="cls-6" d="M183.07,106.82C183,69.77,150,39.09,106.74,33.2c12.46,12.9,21.13,41,21.18,73.7s-8.54,60.82-21,73.76C150.21,174.64,183.12,143.85,183.07,106.82Z"/><path class="cls-3" d="M155.95,106.6a89.81,89.81,0,0,0-34.73-70.8c35.9,9.9,61.8,37.81,61.85,70.76s-25.76,60.95-61.64,71A89.82,89.82,0,0,0,155.95,106.6Z"/><path class="cls-3" d="M27.12,106.79A89.81,89.81,0,0,1,61.64,35.89C25.77,45.89,0,73.88,0,106.83s25.95,60.87,61.85,70.77A89.82,89.82,0,0,1,27.12,106.79Z"/><path class="cls-2" d="M76.1,33C51.24,63.56,50.27,113.82,60.78,150.28c3,10.29,8.13,22.23,15.54,30.17a112,112,0,0,0,14.72,1L90.83,31.92A113,113,0,0,0,76.1,33Z"/><path class="cls-2" d="M91.42,31.91h-.6L91,181.48h.6c.63,0,1.25,0,1.87,0V31.95C92.82,31.93,92.13,31.91,91.42,31.91Z"/><path class="cls-2" d="M76.1,33a107.22,107.22,0,0,0-17.33,3.9,89.77,89.77,0,0,0,2,140.21,89.77,89.77,0,0,1-2-140.21C24.37,47.7,0,74.94,0,106.84c.06,37,33.06,67.71,76.33,73.61-7.41-7.94-12.58-19.88-15.54-30.17C50.27,113.82,51.24,63.56,76.1,33Z"/><path class="cls-2" d="M122.74,150.18c-2.93,10.27-8,22.19-15.41,30.16A107.19,107.19,0,0,0,122.87,177a89.77,89.77,0,0,0,.92-140.66c-1.06-.33-2.1-.69-3.18-1,.31.23.59.49.89.73a107.36,107.36,0,0,0-14.39-3C132,63.5,133.14,113.72,122.74,150.18Z"/><path class="cls-2" d="M107.33,180.34c7.36-8,12.47-19.89,15.41-30.16C133.14,113.72,132,63.5,107.11,33l-.38-.06a111.54,111.54,0,0,0-13.22-1V181.46A113,113,0,0,0,107,180.4Z"/><path class="cls-7" d="M87.85,284.26c-10.16-37.57,2.7-54.29,3.25-55l4.54,3.6c-.12.15-11.52,15.42-2.2,49.87Z"/><path class="cls-8" d="M100.48,284.25c-19.31-33.79-11.08-53.21-10.72-54l5.3,2.34c-.07.17-7.26,17.83,10.45,48.81Z"/><path class="cls-9" d="M109.22,279.25c-25.36-29.52-21-50.15-20.76-51l5.65,1.29c0,.18-3.75,18.88,19.5,46Z"/><path class="cls-10" d="M91.51,184.85s-3.5,27.92,2,51.09"/><rect class="cls-9" x="62.16" y="177.18" width="58.69" height="7.61" transform="translate(-0.27 0.14) rotate(-0.09)"/><rect class="cls-9" x="67.44" y="21.54" width="47.68" height="13.52" transform="translate(-0.04 0.14) rotate(-0.09)"/><path class="cls-9" d="M96,197a5.48,5.48,0,1,1-5.49-5.47A5.47,5.47,0,0,1,96,197Z"/><ellipse class="cls-9" cx="91.58" cy="228.82" rx="10.27" ry="8.61" transform="translate(-0.36 0.14) rotate(-0.09)"/><path class="cls-11" d="M63.42,84h11.3V68.9S52.12,76.43,48.35,99H89.78V68.9"/><path class="cls-11" d="M116.15,84h-11.3V68.9s22.6,7.53,26.37,30.13H89.78V68.9"/><path class="cls-11" d="M116.15,125.4h-11.3v15.07s22.6-7.53,26.37-30.13H89.78v30.13"/><path class="cls-11" d="M63.42,125.4h11.3v15.07s-22.6-7.53-26.37-30.13H89.78v30.13"/><circle class="cls-11" cx="89.78" cy="104.68" r="56.5"/></g></g></svg>