<svg xmlns="http://www.w3.org/2000/svg" viewBox="0 0 538.6 234.1"><defs><style>.cls-1{fill:#ffbc58;}.cls-2{fill:#f8a839;}.cls-3{fill:none;stroke:#fbb03b;stroke-miterlimit:10;stroke-width:3.77px;}</style></defs><title>Asset 7</title><g id="Layer_2" data-name="Layer 2"><g id="Moon_Cake" data-name="Moon Cake"><path class="cls-1" d="M538.6,78.74v58c0,5.07-3,9.54-7.67,12.26a12.68,12.68,0,0,1,.7,4.1c0,7.23-6.16,13.27-14.36,14.68a12.68,12.68,0,0,1,.12,1.68c0,8.28-8.07,15-18,15a21.82,21.82,0,0,1-3.48-.29c-2,6.44-9,11.19-17.42,11.19a20.89,20.89,0,0,1-8.63-1.83,19.19,19.19,0,0,1-15,6.68c-6.57,0-12.3-2.93-15.45-7.3-3,4.87-9,8.21-16.06,8.21-7.34,0-13.64-3.65-16.45-8.89a15,15,0,0,1-26.8-4.64,21.13,21.13,0,0,1-6.29,1c-9.81,0-17.77-6.52-18-14.63-9-.81-16.08-7.17-16.08-14.9a12.72,12.72,0,0,1,1-4.8c-6.28-2.34-10.66-7.58-10.66-13.67V79.65Z"/><path class="cls-2" d="M538.6,77.68a13.38,13.38,0,0,0-3.7-9.08A13.06,13.06,0,0,0,537.39,61c0-6-4.25-11.16-10.36-13.55a12.68,12.68,0,0,0,.67-4c0-8-7.46-14.45-16.88-14.95-1.29-7.22-8.76-12.77-17.8-12.77a21.75,21.75,0,0,0-4.34.45c-2-6.52-9-11.36-17.47-11.36A20.9,20.9,0,0,0,463,6.49a20.25,20.25,0,0,0-29.09-.65,19.83,19.83,0,0,0-13-4.63c-7.22,0-13.42,3.54-16.3,8.63a20.89,20.89,0,0,0-8.23-1.67c-7.9,0-14.59,4.23-17,10.11a21.58,21.58,0,0,0-4.18-.42c-10,0-18,6.71-18,15,0,.17,0,.34,0,.51-9.33.57-16.69,7-16.69,14.93a12.65,12.65,0,0,0,.73,4.2C335.19,54.92,331,60.05,331,66a13,13,0,0,0,2.15,7.1,13.21,13.21,0,0,0-3.05,8.35c0,6.09,4.38,11.33,10.65,13.67a12.69,12.69,0,0,0-1,4.8c0,7.73,7,14.09,16.07,14.9.23,8.11,8.19,14.63,18,14.63a21.17,21.17,0,0,0,6.29-1,15,15,0,0,0,26.79,4.64c2.81,5.23,9.11,8.89,16.45,8.89,7,0,13.08-3.34,16.06-8.21,3.15,4.37,8.88,7.3,15.44,7.3a19.18,19.18,0,0,0,15-6.67,20.85,20.85,0,0,0,8.63,1.83c8.37,0,15.39-4.75,17.41-11.19a21.76,21.76,0,0,0,3.48.28c10,0,18-6.71,18-15a12.52,12.52,0,0,0-.12-1.67c8.19-1.41,14.35-7.45,14.35-14.68a12.62,12.62,0,0,0-.7-4.1C535.56,87.23,538.6,82.75,538.6,77.68Z"/><path class="cls-2" d="M355.52,116v55.73A148.3,148.3,0,0,1,355.52,116Z"/><path class="cls-2" d="M379.82,128.49v55.73A148.26,148.26,0,0,1,379.82,128.49Z"/><path class="cls-2" d="M406.85,133.49v55.73A148.24,148.24,0,0,1,406.85,133.49Z"/><path class="cls-2" d="M439.21,134.85v55.73A148.26,148.26,0,0,0,439.21,134.85Z"/><path class="cls-2" d="M470.1,134.85v55.73A148.26,148.26,0,0,0,470.1,134.85Z"/><path class="cls-2" d="M496,124.4v55.73A148.31,148.31,0,0,0,496,124.4Z"/><path class="cls-2" d="M517.39,107.59v55.73A148.25,148.25,0,0,0,517.39,107.59Z"/><path class="cls-2" d="M531.48,88.28V144A148.27,148.27,0,0,0,531.48,88.28Z"/><path class="cls-2" d="M340.52,96v55.73A148.25,148.25,0,0,1,340.52,96Z"/><path class="cls-1" d="M208.6,78.74v58c0,5.07-3,9.54-7.67,12.26a12.68,12.68,0,0,1,.7,4.1c0,7.23-6.16,13.27-14.36,14.68a12.68,12.68,0,0,1,.12,1.68c0,8.28-8.07,15-18,15a21.82,21.82,0,0,1-3.48-.29c-2,6.44-9,11.19-17.42,11.19a20.89,20.89,0,0,1-8.63-1.83,19.19,19.19,0,0,1-15,6.68c-6.57,0-12.3-2.93-15.45-7.3-3,4.87-9,8.21-16.06,8.21-7.34,0-13.64-3.65-16.45-8.89a15,15,0,0,1-26.8-4.64,21.13,21.13,0,0,1-6.29,1c-9.81,0-17.77-6.52-18-14.63-9-.81-16.08-7.17-16.08-14.9a12.72,12.72,0,0,1,1-4.8C4.38,151.86,0,146.62,0,140.53V79.65Z"/><path class="cls-2" d="M208.6,77.68a13.38,13.38,0,0,0-3.7-9.08A13.06,13.06,0,0,0,207.39,61c0-6-4.25-11.16-10.36-13.55a12.68,12.68,0,0,0,.67-4c0-8-7.46-14.45-16.88-14.95-1.29-7.22-8.76-12.77-17.8-12.77a21.75,21.75,0,0,0-4.34.45c-2-6.52-9-11.36-17.47-11.36A20.9,20.9,0,0,0,133,6.49a20.25,20.25,0,0,0-29.09-.65,19.83,19.83,0,0,0-13-4.63c-7.22,0-13.42,3.54-16.3,8.63A20.89,20.89,0,0,0,66.4,8.17c-7.9,0-14.59,4.23-17,10.11a21.58,21.58,0,0,0-4.18-.42c-10,0-18,6.71-18,15,0,.17,0,.34,0,.51-9.33.57-16.69,7-16.69,14.93a12.65,12.65,0,0,0,.73,4.2C5.19,54.92,1,60.05,1,66a13,13,0,0,0,2.15,7.1A13.21,13.21,0,0,0,.08,81.47c0,6.09,4.38,11.33,10.65,13.67a12.69,12.69,0,0,0-1,4.8c0,7.73,7,14.09,16.07,14.9.23,8.11,8.19,14.63,18,14.63a21.17,21.17,0,0,0,6.29-1,15,15,0,0,0,26.79,4.64C79.72,138.39,86,142,93.36,142c7,0,13.08-3.34,16.06-8.21,3.15,4.37,8.88,7.3,15.44,7.3a19.18,19.18,0,0,0,15-6.67,20.85,20.85,0,0,0,8.63,1.83c8.37,0,15.39-4.75,17.41-11.19a21.76,21.76,0,0,0,3.48.28c10,0,18-6.71,18-15a12.52,12.52,0,0,0-.12-1.67c8.19-1.41,14.35-7.45,14.35-14.68a12.62,12.62,0,0,0-.7-4.1C205.56,87.23,208.6,82.75,208.6,77.68Z"/><path class="cls-2" d="M25.52,116v55.73A148.3,148.3,0,0,1,25.52,116Z"/><path class="cls-2" d="M49.82,128.49v55.73A148.26,148.26,0,0,1,49.82,128.49Z"/><path class="cls-2" d="M76.85,133.49v55.73A148.24,148.24,0,0,1,76.85,133.49Z"/><path class="cls-2" d="M109.21,134.85v55.73A148.26,148.26,0,0,0,109.21,134.85Z"/><path class="cls-2" d="M140.1,134.85v55.73A148.26,148.26,0,0,0,140.1,134.85Z"/><path class="cls-2" d="M166,124.4v55.73A148.31,148.31,0,0,0,166,124.4Z"/><path class="cls-2" d="M187.39,107.59v55.73A148.25,148.25,0,0,0,187.39,107.59Z"/><path class="cls-2" d="M201.48,88.28V144A148.27,148.27,0,0,0,201.48,88.28Z"/><path class="cls-2" d="M10.52,96v55.73A148.25,148.25,0,0,1,10.52,96Z"/><path class="cls-1" d="M373.6,111.74v58c0,5.07-3,9.54-7.67,12.26a12.68,12.68,0,0,1,.7,4.1c0,7.23-6.16,13.27-14.36,14.68a12.68,12.68,0,0,1,.12,1.68c0,8.28-8.07,15-18,15a21.82,21.82,0,0,1-3.48-.29c-2,6.44-9,11.19-17.42,11.19a20.89,20.89,0,0,1-8.63-1.83,19.19,19.19,0,0,1-15,6.68c-6.57,0-12.3-2.93-15.45-7.3-3,4.87-9,8.21-16.06,8.21-7.34,0-13.64-3.65-16.45-8.89a15,15,0,0,1-26.8-4.64,21.13,21.13,0,0,1-6.29,1c-9.81,0-17.77-6.52-18-14.63-9-.81-16.08-7.17-16.08-14.9a12.72,12.72,0,0,1,1-4.8c-6.28-2.34-10.66-7.58-10.66-13.67V112.65Z"/><path class="cls-2" d="M373.6,110.68a13.38,13.38,0,0,0-3.7-9.08A13.06,13.06,0,0,0,372.39,94c0-6-4.25-11.16-10.36-13.55a12.68,12.68,0,0,0,.67-4c0-8-7.46-14.45-16.88-14.95-1.29-7.22-8.76-12.77-17.8-12.77a21.75,21.75,0,0,0-4.34.45c-2-6.52-9-11.36-17.47-11.36A20.9,20.9,0,0,0,298,39.49a20.25,20.25,0,0,0-29.09-.65,19.83,19.83,0,0,0-13-4.63c-7.22,0-13.42,3.54-16.3,8.63a20.89,20.89,0,0,0-8.23-1.67c-7.9,0-14.59,4.23-17,10.11a21.58,21.58,0,0,0-4.18-.42c-10,0-18,6.71-18,15,0,.17,0,.34,0,.51-9.33.57-16.69,7-16.69,14.93a12.65,12.65,0,0,0,.73,4.2C170.19,87.92,166,93.05,166,99a13,13,0,0,0,2.15,7.1,13.21,13.21,0,0,0-3.05,8.35c0,6.09,4.38,11.33,10.65,13.67a12.69,12.69,0,0,0-1,4.8c0,7.73,7,14.09,16.07,14.9.23,8.11,8.19,14.63,18,14.63a21.17,21.17,0,0,0,6.29-1,15,15,0,0,0,26.79,4.64c2.81,5.23,9.11,8.89,16.45,8.89,7,0,13.08-3.34,16.06-8.21,3.15,4.37,8.88,7.3,15.44,7.3a19.18,19.18,0,0,0,15-6.67,20.85,20.85,0,0,0,8.63,1.83c8.37,0,15.39-4.75,17.41-11.19a21.76,21.76,0,0,0,3.48.28c10,0,18-6.71,18-15a12.52,12.52,0,0,0-.12-1.67c8.19-1.41,14.35-7.45,14.35-14.68a12.62,12.62,0,0,0-.7-4.1C370.56,120.23,373.6,115.75,373.6,110.68Z"/><path class="cls-2" d="M190.52,149v55.73A148.3,148.3,0,0,1,190.52,149Z"/><path class="cls-2" d="M214.82,161.49v55.73A148.26,148.26,0,0,1,214.82,161.49Z"/><path class="cls-2" d="M241.85,166.49v55.73A148.24,148.24,0,0,1,241.85,166.49Z"/><path class="cls-2" d="M274.21,167.85v55.73A148.26,148.26,0,0,0,274.21,167.85Z"/><path class="cls-2" d="M305.1,167.85v55.73A148.26,148.26,0,0,0,305.1,167.85Z"/><path class="cls-2" d="M331,157.4v55.73A148.31,148.31,0,0,0,331,157.4Z"/><path class="cls-2" d="M352.39,140.59v55.73A148.25,148.25,0,0,0,352.39,140.59Z"/><path class="cls-2" d="M366.48,121.28V177A148.27,148.27,0,0,0,366.48,121.28Z"/><path class="cls-2" d="M175.52,129v55.73A148.25,148.25,0,0,1,175.52,129Z"/><path class="cls-3" d="M244.42,83.44h11.3V68.38s-22.6,7.53-26.37,30.13h41.43V68.38"/><path class="cls-3" d="M297.16,83.44h-11.3V68.38s22.6,7.53,26.37,30.13H270.79V68.38"/><path class="cls-3" d="M297.16,124.88h-11.3v15.07s22.6-7.53,26.37-30.13H270.79v30.13"/><path class="cls-3" d="M244.42,124.88h11.3v15.07s-22.6-7.53-26.37-30.13h41.43v30.13"/><circle class="cls-3" cx="270.79" cy="104.16" r="56.5"/><path class="cls-3" d="M411.42,50.44h11.3V35.38s-22.6,7.53-26.37,30.13h41.43V35.38"/><path class="cls-3" d="M464.16,50.44h-11.3V35.38s22.6,7.53,26.37,30.13H437.79V35.38"/><path class="cls-3" d="M464.16,91.88h-11.3v15.07s22.6-7.53,26.37-30.13H437.79v30.13"/><path class="cls-3" d="M411.42,91.88h11.3v15.07s-22.6-7.53-26.37-30.13h41.43v30.13"/><circle class="cls-3" cx="437.79" cy="71.16" r="56.5"/><path class="cls-3" d="M78.42,50.44h11.3V35.38s-22.6,7.53-26.37,30.13h41.43V35.38"/><path class="cls-3" d="M131.16,50.44h-11.3V35.38s22.6,7.53,26.37,30.13H104.79V35.38"/><path class="cls-3" d="M131.16,91.88h-11.3v15.07s22.6-7.53,26.37-30.13H104.79v30.13"/><path class="cls-3" d="M78.42,91.88h11.3v15.07s-22.6-7.53-26.37-30.13h41.43v30.13"/><circle class="cls-3" cx="104.79" cy="71.16" r="56.5"/></g></g></svg>