<svg xmlns="http://www.w3.org/2000/svg" viewBox="0 0 485.95 485.95"><defs><style>.cls-1{isolation:isolate;}.cls-2{fill:#f8f4ed;}.cls-2,.cls-3,.cls-4{fill-rule:evenodd;}.cls-3{fill:#fefefe;}.cls-4{fill:#e9d9d3;}.cls-5,.cls-6{fill:#fff;mix-blend-mode:soft-light;}.cls-5{opacity:0.3;}.cls-6{opacity:0.4;}</style></defs><title>Asset 14</title><g class="cls-1"><g id="Layer_2" data-name="Layer 2"><g id="Moon"><path class="cls-2" d="M243,372C314,372,372,314,372,243S314,114,243,114,114,171.92,114,243s57.95,129,129,129Z"/><path class="cls-3" d="M222.43,370.33a129,129,0,0,1,7.82-255.72,129,129,0,0,1-7.82,255.72Z"/><path class="cls-2" d="M128.12,284.64c2.16-2.62,9.85.25,17.16,6.34s11.5,13.15,9.34,15.72-9.85-.25-17.16-6.34-11.5-13.15-9.34-15.72Z"/><path class="cls-2" d="M202.57,318.72c1.52-3,9.64-2.07,18.17,2.2S235,331,233.47,334s-9.64,2-18.17-2.2-14.2-10.1-12.72-13.1Z"/><path class="cls-2" d="M265.21,150.54c1-3.25,9.13-3.68,18.26-1s15.77,7.52,14.79,10.78-9.13,3.64-18.26.93-15.77-7.52-14.79-10.74Z"/><path class="cls-2" d="M161.06,163.56c-2.11-7.23,2.66-16.7,10.69-21.22s16.23-2.28,18.3,4.95-2.66,16.7-10.69,21.22-16.23,2.28-18.3-4.95Z"/><path class="cls-4" d="M310.35,348.06c-1.86-.85,1.1-9.64,6.59-19.61s11.45-17.41,13.27-16.57-1.1,9.64-6.59,19.65-11.45,17.37-13.27,16.53Z"/><path class="cls-2" d="M274.5,306.28c-.27.11-.54.16-.8.27-19.35,5.52-39.88-7-45.94-28.09-5.41-18.87,2.79-38.22,18.49-45.94a4.47,4.47,0,0,1,.8-.21c19.35-5.57,39.93,7,45.94,28,5.41,18.87-2.73,38.22-18.49,45.94Z"/><path class="cls-2" d="M163.52,208.71c1.38-4.63,13-5.23,26-1.38s22.41,10.7,21,15.32-13,5.17-26,1.32-22.41-10.7-21-15.26Z"/><circle class="cls-5" cx="242.98" cy="242.98" r="242.98"/><circle class="cls-6" cx="242.98" cy="242.98" r="185.36"/></g></g></g></svg>