<svg xmlns="http://www.w3.org/2000/svg" viewBox="0 0 1920 405"><defs><style>.cls-1{fill:#31536a;}</style></defs><title>Asset 4</title><g id="Layer_2" data-name="Layer 2"><g id="Background_Mountain" data-name="Background Mountain"><path class="cls-1" d="M0,3S10.78-23.85,157.38,82.35c0,0,30.18-33.61,163.84,40.33,0,0,79.76,39,110,37.64,0,0,69,6.72,105.63,20.17,0,0,45.27-2.69,107.79,30.92,0,0,392.36,75.28,666.15,36.29,0,0,153.07-59.15,198.34-94.1,0,0,36.65-49.74,105.64-49.74,0,0,6.28-11.86,30.28-23.86,0,0,116.31-56.8,181-52.76,0,0,66,4.17,94-5.24V405H0Z"/></g></g></svg>