<svg xmlns="http://www.w3.org/2000/svg" viewBox="0 0 876.97 39.76"><defs><style>.cls-1{fill:#fff;}</style></defs><title>Asset 30</title><g id="Layer_2" data-name="Layer 2"><g id="Text"><path class="cls-1" d="M34.24,4.27q0,.44-.06,1.08T34,6.78q-.11.78-.27,1.67t-.35,1.84q-.4,1.92-.83,3.59a28.17,28.17,0,0,1-.88,2.91q-.46,1.21-.83,2.29t-.76,2q-.09.23-.37.87l-.65,1.49-.79,1.8L27.49,27l-.64,1.47-.36.83a1,1,0,0,1-.3.37,3,3,0,0,1-.53.35,3.4,3.4,0,0,1-.62.25,2,2,0,0,1-.57.1,2.27,2.27,0,0,1-1-.24,3.54,3.54,0,0,1-.91-.66,5.61,5.61,0,0,1-.8-1,7.73,7.73,0,0,1-.65-1.28L17,17.16q-.37.84-.87,1.92T15.07,21.3L14,23.54q-.55,1.11-1,2Q11.6,28.09,10.44,30v0Q9.19,32,8.38,32a2.36,2.36,0,0,1-1.71-.66,5.4,5.4,0,0,1-1.15-1.77,17.09,17.09,0,0,1-.83-2.53q-.36-1.42-.78-3-1.35-4.89-2.81-12,0-.16-.19-.72T.51,10v0Q.25,9.07.12,8.42A5.94,5.94,0,0,1,0,7.37a1.49,1.49,0,0,1,.15-.62,2.11,2.11,0,0,1,.4-.59,2.25,2.25,0,0,1,.6-.44,1.58,1.58,0,0,1,.73-.18,1.36,1.36,0,0,1,.81.3,3.31,3.31,0,0,1,.79.91A9.93,9.93,0,0,1,4.57,9.18q.14.44.31,1.2l.4,1.85q.24,1.09.56,2.54t.76,3.3q.4,1.74.69,3.06l.49,2.3q.21,1,.37,1.66a11.64,11.64,0,0,0,.32,1.13q.88-1.49,1.62-2.83t1.32-2.46q.58-1.12,1-2l.72-1.49q.46-.95.95-2.15t1.27-2.86a1.87,1.87,0,0,1,.3-.42,2.24,2.24,0,0,1,.46-.38,2.7,2.7,0,0,1,.57-.27,1.86,1.86,0,0,1,.61-.11,1.52,1.52,0,0,1,1.05.57,6.2,6.2,0,0,1,1.05,1.68l.24.59.43,1.12.54,1.41L21.17,18l.49,1.27q.22.57.34.85,1,2.3,1.53,3.67a9.14,9.14,0,0,0,.86,1.78q.67-1.21,1.28-2.63t1.16-2.92q.54-1.5,1-3t.86-3q.4-1.46.68-2.9t.46-2.8Q30,7,30.15,5.78T30.3,3.5a1.13,1.13,0,0,1,.18-.44,2.38,2.38,0,0,1,.42-.51,2.83,2.83,0,0,1,.59-.42A1.37,1.37,0,0,1,32.15,2a1.71,1.71,0,0,1,1.71.91A2.9,2.9,0,0,1,34.24,4.27Z"/><path class="cls-1" d="M51.87,21.69a2.9,2.9,0,0,1-.51,1.48A10.47,10.47,0,0,1,50,24.89a17.23,17.23,0,0,1-2.08,1.8,15.86,15.86,0,0,1-2.36,1.44,13.56,13.56,0,0,1-2.49.95,9.4,9.4,0,0,1-2.46.34A7,7,0,0,1,38,29a5.13,5.13,0,0,1-2-1.37,6.1,6.1,0,0,1-1.22-2.26,10.46,10.46,0,0,1-.42-3.11,11.74,11.74,0,0,1,.2-2.14,14,14,0,0,1,.59-2.17,13,13,0,0,1,1-2.09,12.41,12.41,0,0,1,2.4-3,8.41,8.41,0,0,1,1.34-1A7.5,7.5,0,0,1,41.51,11a6.16,6.16,0,0,1,1.92-.29,3.51,3.51,0,0,1,1.5.31,3.7,3.7,0,0,1,1.12.78,3.4,3.4,0,0,1,.7,1.07A3.08,3.08,0,0,1,47,14a5.67,5.67,0,0,1-.59,2.56,9,9,0,0,1-1.64,2.27A17.67,17.67,0,0,1,42.23,21Q40.75,22,39,23.12a1.74,1.74,0,0,0-.27.16q-.18.12-.18.16a2.42,2.42,0,0,0,.18.76,2.33,2.33,0,0,0,.49.76,2.72,2.72,0,0,0,.85.59,3,3,0,0,0,1.24.24,8.43,8.43,0,0,0,2.23-.31,10.73,10.73,0,0,0,2.21-.89,13.9,13.9,0,0,0,2.13-1.41,16.3,16.3,0,0,0,2-1.86,2.42,2.42,0,0,1,.69-.58,1.41,1.41,0,0,1,.64-.18.67.67,0,0,1,.52.25A1.37,1.37,0,0,1,51.87,21.69ZM43.35,15a.93.93,0,0,0-.11-.47A1,1,0,0,0,43,14.2a.86.86,0,0,0-.26-.15l-.18,0a2.13,2.13,0,0,0-1.46.61,6,6,0,0,0-1.2,1.56A13.17,13.17,0,0,0,39,18.26q-.4,1.14-.66,2.21l2-1.49a17.14,17.14,0,0,0,1.59-1.34A6.56,6.56,0,0,0,43,16.35,2.63,2.63,0,0,0,43.35,15Z"/><path class="cls-1" d="M101,4.27q0,.44-.06,1.08t-.18,1.42q-.11.78-.27,1.67t-.35,1.84q-.4,1.92-.83,3.59a28.17,28.17,0,0,1-.88,2.91q-.46,1.21-.83,2.29t-.76,2q-.09.23-.37.87l-.65,1.49L95,25.22,94.2,27l-.64,1.47-.36.83a1,1,0,0,1-.3.37,3,3,0,0,1-.53.35,3.4,3.4,0,0,1-.62.25,2,2,0,0,1-.57.1,2.27,2.27,0,0,1-1-.24,3.54,3.54,0,0,1-.91-.66,5.61,5.61,0,0,1-.8-1,7.73,7.73,0,0,1-.65-1.28l-4.1-10.05q-.37.84-.87,1.92T81.78,21.3l-1.11,2.24q-.55,1.11-1,2-1.34,2.55-2.5,4.43v0Q75.9,32,75.09,32a2.36,2.36,0,0,1-1.71-.66,5.4,5.4,0,0,1-1.15-1.77,17.09,17.09,0,0,1-.83-2.53q-.36-1.42-.78-3-1.35-4.89-2.81-12,0-.16-.19-.72T67.22,10v0q-.26-.93-.39-1.58a5.94,5.94,0,0,1-.12-1.05,1.49,1.49,0,0,1,.15-.62,2.11,2.11,0,0,1,.4-.59,2.25,2.25,0,0,1,.6-.44,1.58,1.58,0,0,1,.73-.18,1.36,1.36,0,0,1,.81.3,3.31,3.31,0,0,1,.79.91,9.93,9.93,0,0,1,1.09,2.43q.14.44.31,1.2l.4,1.85q.24,1.09.56,2.54t.76,3.3q.4,1.74.69,3.06l.49,2.3q.21,1,.37,1.66a11.64,11.64,0,0,0,.32,1.13q.88-1.49,1.62-2.83t1.32-2.46q.58-1.12,1-2l.72-1.49q.46-.95.95-2.15t1.27-2.86a1.87,1.87,0,0,1,.3-.42,2.24,2.24,0,0,1,.46-.38,2.7,2.7,0,0,1,.57-.27,1.86,1.86,0,0,1,.61-.11,1.52,1.52,0,0,1,1.05.57,6.2,6.2,0,0,1,1.05,1.68l.24.59.43,1.12.54,1.41L87.88,18l.49,1.27q.22.57.34.85,1,2.3,1.53,3.67a9.14,9.14,0,0,0,.86,1.78q.67-1.21,1.28-2.63t1.16-2.92q.54-1.5,1-3t.86-3q.4-1.46.68-2.9t.46-2.8q.18-1.36.29-2.59T97,3.5a1.13,1.13,0,0,1,.18-.44,2.38,2.38,0,0,1,.42-.51,2.83,2.83,0,0,1,.59-.42A1.37,1.37,0,0,1,98.86,2a1.71,1.71,0,0,1,1.71.91A2.9,2.9,0,0,1,101,4.27Z"/><path class="cls-1" d="M120.43,19.14a2.47,2.47,0,0,1-.31,1,10.75,10.75,0,0,1-.84,1.39q-.54.76-1.27,1.63T116.4,25q-.93,1-2,2t-2.32,1.86a11.63,11.63,0,0,1-2.39,1.36,5.89,5.89,0,0,1-2.23.48,5.11,5.11,0,0,1-2.14-.41,4.66,4.66,0,0,1-1.55-1.12,6,6,0,0,1-1-1.63,11,11,0,0,1-.64-2,14.67,14.67,0,0,1-.33-2.08q-.09-1.05-.09-2,0-.37.05-1.11t.15-1.56q.1-.82.21-1.58a10.37,10.37,0,0,1,.24-1.2,3.49,3.49,0,0,1,1.21-1.63,3.17,3.17,0,0,1,2-.74q1.14,0,1.14,1.37a8.93,8.93,0,0,1-.11,1.38q-.11.73-.25,1.43-.23,1.28-.32,2.31t-.09,1.82a14,14,0,0,0,.11,1.74,8.92,8.92,0,0,0,.31,1.5,3.39,3.39,0,0,0,.51,1.06.9.9,0,0,0,.73.4,6.43,6.43,0,0,0,1.09-.1A4.7,4.7,0,0,0,110,26a20.89,20.89,0,0,0,3.22-2.23q.6-.49,1.36-1.17t1.52-1.39q.76-.71,1.42-1.4a15.36,15.36,0,0,0,1.05-1.18l.15-.22.22-.27a1.3,1.3,0,0,1,.27-.24.53.53,0,0,1,.29-.1.83.83,0,0,1,.41.08,1,1,0,0,1,.29.48A1.91,1.91,0,0,1,120.43,19.14ZM109.49,4.68a3.4,3.4,0,0,1-.18,1.1,3.61,3.61,0,0,1-.51,1,2.36,2.36,0,0,1-2.06.93,5.89,5.89,0,0,1-1-.09,4.7,4.7,0,0,1-.91-.25,2.07,2.07,0,0,1-.67-.4.75.75,0,0,1-.26-.56,2.74,2.74,0,0,1,.28-1.15,4.81,4.81,0,0,1,.73-1.12,4.52,4.52,0,0,1,1-.86,1.92,1.92,0,0,1,1-.34A6.69,6.69,0,0,1,108,3a2.29,2.29,0,0,1,.8.27,1.29,1.29,0,0,1,.5.54A2,2,0,0,1,109.49,4.68Z"/><path class="cls-1" d="M125.21,13.66a1.71,1.71,0,0,1-.11.51,4.36,4.36,0,0,1-.3.68,6,6,0,0,1-.47.74,5.56,5.56,0,0,1-.63.71l-.37.36a3.52,3.52,0,0,0-.35.43,2.7,2.7,0,0,0-.26.47,1.2,1.2,0,0,0-.11.47,3.54,3.54,0,0,0,.1.83,4.8,4.8,0,0,0,.3.85,9.85,9.85,0,0,0,.51,1q.31.52.75,1.15l.57.83q.31.46.6.95a9.67,9.67,0,0,1,.52,1,5.23,5.23,0,0,1,.33,1q1.46-1.25,2.87-2.7t2.63-2.9q1.22-1.45,2.2-2.81a23.48,23.48,0,0,0,1.57-2.47l.54-.95a3.36,3.36,0,0,1,.43-.62,1.27,1.27,0,0,1,.45-.33,1.51,1.51,0,0,1,.57-.1.74.74,0,0,1,.62.26,1.73,1.73,0,0,1,.21,1,4.27,4.27,0,0,1-.32,1.29,15.51,15.51,0,0,1-1,2.14q-.7,1.27-1.83,2.91T132.43,24q-.88,1.05-2,2.2T128,28.4q-1.26,1.08-2.54,2.06T123,32.16A17.83,17.83,0,0,1,121,33.32a3.83,3.83,0,0,1-1.49.43,1.54,1.54,0,0,1-.77-.21A2.52,2.52,0,0,1,118,33a2.67,2.67,0,0,1-.43-.65,1.48,1.48,0,0,1-.16-.61,1.66,1.66,0,0,1,.27-.95,2.73,2.73,0,0,1,.69-.7,4.89,4.89,0,0,1,.95-.52l1.05-.41q.53-.19,1-.4a2.86,2.86,0,0,0,.75-.45,2.74,2.74,0,0,0,.3-.34,1.3,1.3,0,0,0,.16-.29,1.24,1.24,0,0,0,.07-.31,3.84,3.84,0,0,0,0-.4,1.56,1.56,0,0,0-.2-.63q-.2-.4-.51-.9t-.69-1l-.74-1-.66-.91q-.3-.42-.46-.69a10.84,10.84,0,0,1-.72-1.53,4.73,4.73,0,0,1-.32-1.71,4.15,4.15,0,0,1,.09-.76q.09-.46.22-.93T119,16a4.52,4.52,0,0,1,.33-.7l.25-.39q.18-.28.47-.64t.63-.76a8.36,8.36,0,0,1,.72-.72,4.51,4.51,0,0,1,.74-.54,1.42,1.42,0,0,1,.7-.21,2.93,2.93,0,0,1,1.67.45A1.37,1.37,0,0,1,125.21,13.66Z"/><path class="cls-1" d="M160.1,19.25a3.4,3.4,0,0,1,0,.46q0,.3-.11.63t-.15.63a3.21,3.21,0,0,1-.15.46,15.72,15.72,0,0,1-1.56,2.35,14,14,0,0,1-1.92,2A9.31,9.31,0,0,1,154,27.12a5.51,5.51,0,0,1-2.28.51,5.39,5.39,0,0,1-1.93-.32,4.39,4.39,0,0,1-1.4-.83,4.44,4.44,0,0,1-.93-1.19,7.45,7.45,0,0,1-.85-2.72,11.29,11.29,0,0,1-.07-1.19,6.16,6.16,0,0,1,0-.66q0-.4.11-.83t.11-.84a6.65,6.65,0,0,0,0-.68q0-.35-.16-.35a11.94,11.94,0,0,0-.87.93q-.41.49-.83,1.07t-.85,1.27l-1,1.54q-.47.76-1,1.65l-1.07,1.81q-.54.91-1.1,1.78a18.16,18.16,0,0,1-1.08,1.52,8.17,8.17,0,0,1-1,1.06,1.35,1.35,0,0,1-.83.4l-.7,0a3,3,0,0,1-.47-.06l-.35-.1-.33-.12a11.4,11.4,0,0,1-.28-1.42q-.11-.76-.15-1.48t-.05-1.29q0-.58,0-.86a38.13,38.13,0,0,1,.41-5.43q.41-2.87,1-6.08.42-2.46.82-5.12t.68-5.53A3.32,3.32,0,0,1,138,2.5a3.89,3.89,0,0,1,.63-.8,3,3,0,0,1,.67-.49,1.25,1.25,0,0,1,.54-.17,1.14,1.14,0,0,1,.7.25,2.51,2.51,0,0,1,.6.68,3.69,3.69,0,0,1,.41.94,3.76,3.76,0,0,1,.15,1q0,.18,0,.35t-.05.35s0,.19-.09.44l-.17.9-.21,1.13Q141,7.73,141,8.3l-.17,1q-.07.43-.11.59t-.11.71q-.1.55-.23,1.36L140,13.74l-.33,2-.33,2-.29,1.77q-.13.79-.21,1.34t-.1.7q0,.19-.06.53l-.1.73q-.05.4-.12.83t-.12.8a9.06,9.06,0,0,0,.54-.73l.88-1.29,1-1.57,1-1.57.87-1.29.5-.75a7.24,7.24,0,0,1,.64-.81q.4-.44.84-.87t.9-.83q.45-.4.8-.66a3.56,3.56,0,0,1,1.44-.73,6.55,6.55,0,0,1,1.27-.13,1,1,0,0,1,.54.18,1.64,1.64,0,0,1,.47.52,3.11,3.11,0,0,1,.34.85,4.81,4.81,0,0,1,.13,1.2,6.76,6.76,0,0,1-.07.89q-.07.52-.16,1.13t-.16,1.26a11.62,11.62,0,0,0-.07,1.25,9.94,9.94,0,0,0,.06,1,4.76,4.76,0,0,0,.25,1.13,2.71,2.71,0,0,0,.54.91,1.14,1.14,0,0,0,.89.38,5.17,5.17,0,0,0,2.93-1A15.27,15.27,0,0,0,158,19.67a3.22,3.22,0,0,1,.91-.86,1.61,1.61,0,0,1,.76-.25.32.32,0,0,1,.31.15A1.26,1.26,0,0,1,160.1,19.25Z"/><path class="cls-1" d="M194.75,1.56a2.66,2.66,0,0,1,0,.34,3.71,3.71,0,0,1-.09.43,12.58,12.58,0,0,1-1.27,2.18Q192.52,5.7,191.5,7t-2.09,2.58q-1.08,1.31-2,2.58-.37.51-.68,1l-.8,1.27-.37.6-.48.78q-.25.41-.52.81t-.47.68q-.14,2.29-.25,4.67t-.25,4.9q-.09,1.28-.12,2a6.07,6.07,0,0,1-.09,1,1.71,1.71,0,0,1-.87,1.18,3.29,3.29,0,0,1-1.63.39,1.48,1.48,0,0,1-.79-.23,2.56,2.56,0,0,1-.64-.56,2.89,2.89,0,0,1-.43-.71,1.81,1.81,0,0,1-.16-.69q0-.3,0-.83t.1-1.17q.06-.64.12-1.35t.13-1.38l.13-1.24q.06-.57.1-.92.18-1.72.26-2.86t.09-1.7a3.14,3.14,0,0,0-.05-.58,2.47,2.47,0,0,0-.14-.49A9.89,9.89,0,0,1,178,15.42q-.81-.75-1.53-1.54l-.51-.59-.67-.76-.7-.83-.63-.77-.46-.57a1,1,0,0,1-.18-.25q-.62-.72-1.19-1.33t-1-1.1q-.43-.49-.69-.86a1.14,1.14,0,0,1-.26-.6,1.18,1.18,0,0,1,.28-.68,2.85,2.85,0,0,1,.91-.73,3,3,0,0,1,.93-.36,4.34,4.34,0,0,1,.67-.06,2,2,0,0,1,1,.27,5.39,5.39,0,0,1,1.07.83,15.76,15.76,0,0,1,1.27,1.39q.69.83,1.56,1.94,1.55,2,2.66,3.09a5.38,5.38,0,0,0,1.7,1.34s.05-.15.23-.42.42-.62.72-1.05l1-1.48,1.21-1.7,1.22-1.7,1.06-1.49.76-1.06q.29-.4.29-.42l.86-1.16.9-1.25L191,.87a2.29,2.29,0,0,1,.42-.48,1.58,1.58,0,0,1,.51-.29,2.06,2.06,0,0,1,.67-.1,2.71,2.71,0,0,1,1.32.3,1.64,1.64,0,0,1,.65.55A1.27,1.27,0,0,1,194.75,1.56Z"/><path class="cls-1" d="M216.62,15.06a1.43,1.43,0,0,1-.22.71,4.5,4.5,0,0,1-.56.76,8,8,0,0,1-.78.75q-.44.37-.88.68t-.83.54q-.4.23-.66.35a7.86,7.86,0,0,1-1.22.36q-.75.17-1.56.28t-1.58.18q-.76.07-1.29.07l-.34,0-.47-.08-.51-.13a1.55,1.55,0,0,1-.43-.2,2.33,2.33,0,0,1,.22.89q0,.48,0,1a5.3,5.3,0,0,1-.07.79q-.07.46-.18.93a8.73,8.73,0,0,1-.27.91,4.42,4.42,0,0,1-.33.74,11.74,11.74,0,0,1-.94,1.39,9.2,9.2,0,0,1-1.12,1.18,9.89,9.89,0,0,1-1.39,1,15.79,15.79,0,0,1-1.79.93,9.37,9.37,0,0,1-2.18.66,13.45,13.45,0,0,1-2.25.18,2.68,2.68,0,0,1-1.53-.45,3.77,3.77,0,0,1-1.12-1.2,6.11,6.11,0,0,1-.69-1.74,8.75,8.75,0,0,1-.24-2.06,6.16,6.16,0,0,1,0-.66q0-.4.12-.8t.18-.79q.1-.39.18-.65a13.86,13.86,0,0,1,.71-1.69,20.13,20.13,0,0,1,1.1-1.94,21.5,21.5,0,0,1,1.41-2,13,13,0,0,1,1.64-1.71,8.46,8.46,0,0,1,1.81-1.2,4.29,4.29,0,0,1,1.89-.46,2.18,2.18,0,0,1,.65.08,1.2,1.2,0,0,1,.4.21,2,2,0,0,1,.29.3,3.72,3.72,0,0,0,.29.33l.25-.05.27,0a1.71,1.71,0,0,1,1.07.42q.53.42,1.07.93l.5.47.47.42a4.14,4.14,0,0,0,.38.3.54.54,0,0,0,.24.11h1l1.09,0,1.07-.08q.52-.05.94-.12l.46-.11,1-.25,1.24-.33,1.24-.33,1-.25.48-.1a1.49,1.49,0,0,1,.56.09Q216.62,14.66,216.62,15.06ZM196.33,26.79a4.34,4.34,0,0,0,2.52-.76,6.4,6.4,0,0,0,1.85-2,10.68,10.68,0,0,0,1.17-2.87,13.84,13.84,0,0,0,.43-3.31,2.49,2.49,0,0,0-.36-.54,3.11,3.11,0,0,0-.54-.5,3.3,3.3,0,0,0-.62-.36,1.44,1.44,0,0,0-.58-.14,1.66,1.66,0,0,0-.91.33q-.49.33-.91.69a5,5,0,0,0-.83.92,9.17,9.17,0,0,0-.76,1.27q-.35.7-.65,1.49t-.51,1.55A13.6,13.6,0,0,0,195.3,24a8.29,8.29,0,0,0-.11,1.28,1.71,1.71,0,0,0,.09.54,1.8,1.8,0,0,0,.24.47,1.15,1.15,0,0,0,.36.33A.89.89,0,0,0,196.33,26.79Z"/><path class="cls-1" d="M236,23.91a2.8,2.8,0,0,1-.4,1.27,5.55,5.55,0,0,1-1.15,1.43,6.64,6.64,0,0,1-1.82,1.16,5.89,5.89,0,0,1-2.41.47,4,4,0,0,1-1.93-.5,6,6,0,0,1-1.64-1.3,6.84,6.84,0,0,1-1.15-1.79,5.08,5.08,0,0,1-.46-2,14.09,14.09,0,0,1-1,1.62q-.62.84-1.37,1.67t-1.57,1.58a15.11,15.11,0,0,1-1.66,1.33,9,9,0,0,1-1.64.91,4,4,0,0,1-1.51.33,1.93,1.93,0,0,1-.73-.21,5.16,5.16,0,0,1-1-.59,5.27,5.27,0,0,1-.93-.91,3.22,3.22,0,0,1-.61-1.19,9.14,9.14,0,0,1-.3-2.32,11.25,11.25,0,0,1,.19-2,16.78,16.78,0,0,1,.6-2.41q.4-1.25.83-2.44l.78-2.16a7.61,7.61,0,0,0,.45-1.83,1.58,1.58,0,0,1,.38-.42,5.2,5.2,0,0,1,.6-.43,5.66,5.66,0,0,1,.63-.34,1.28,1.28,0,0,1,.5-.14,1.25,1.25,0,0,1,.64.19,2.69,2.69,0,0,1,.59.47,2.75,2.75,0,0,1,.43.6,1.21,1.21,0,0,1,.17.54,3.07,3.07,0,0,1-.19.88q-.19.58-.46,1.25T218.31,18l-.48,1.07-.54,1.2a10.75,10.75,0,0,0-.46,1.21,11,11,0,0,0-.32,1.31,8.36,8.36,0,0,0-.12,1.48q0,.21,0,.54a4.45,4.45,0,0,0,.08.63,2.13,2.13,0,0,0,.18.54q.11.23.29.23a1.17,1.17,0,0,0,.47-.12,5.29,5.29,0,0,0,.56-.3q.29-.18.58-.39l.52-.39a14.05,14.05,0,0,0,1.37-1.24q.76-.76,1.45-1.57t1.26-1.52a13,13,0,0,0,.79-1.08,7.34,7.34,0,0,0,.58-1.18q.25-.63.47-1.27t.47-1.24a5.25,5.25,0,0,1,.55-1.05,2.71,2.71,0,0,1,.75-.74,1.87,1.87,0,0,1,1-.28,2,2,0,0,1,.95.18,1.22,1.22,0,0,1,.49.47,1.46,1.46,0,0,1,.18.61q0,.33,0,.59a1.23,1.23,0,0,1-.1.41l-.24.61q-.14.32-.31.74t-.31.9q-.14.47-.24,1a5.32,5.32,0,0,0-.1,1,7,7,0,0,0,.25,1.87,6.34,6.34,0,0,0,.65,1.56,3.73,3.73,0,0,0,.92,1.07,1.74,1.74,0,0,0,1.06.4,5.59,5.59,0,0,0,1.4-.19,3.75,3.75,0,0,0,1.49-.83l.29-.25a4.11,4.11,0,0,1,.35-.28,2.26,2.26,0,0,1,.38-.22,1,1,0,0,1,.4-.09.71.71,0,0,1,.44.18A.51.51,0,0,1,236,23.91Z"/><path class="cls-1" d="M272.88,24.66a2.6,2.6,0,0,1-.12.73,2.87,2.87,0,0,1-.42.83,6.92,6.92,0,0,1-.88,1.15,7.92,7.92,0,0,1-1.24,1.08,6.65,6.65,0,0,1-1.51.8,4.83,4.83,0,0,1-1.71.31,3.79,3.79,0,0,1-1.81-.42A4.36,4.36,0,0,1,263.81,28a6,6,0,0,1-.93-1.69,8.77,8.77,0,0,1-.47-2,16.44,16.44,0,0,1-1.68,2.08,15.23,15.23,0,0,1-2,1.76,10.16,10.16,0,0,1-2.08,1.21,5.13,5.13,0,0,1-2,.45,2.87,2.87,0,0,1-1.3-.31,3.55,3.55,0,0,1-1.08-.83,4.25,4.25,0,0,1-.75-1.21,3.76,3.76,0,0,1-.28-1.44,9.38,9.38,0,0,1,.11-1.42,11.43,11.43,0,0,1,.38-1.61,19.69,19.69,0,0,1,.69-1.88q.43-1,1.06-2.23a14.85,14.85,0,0,1,1.71-2.58,18.93,18.93,0,0,1,2-2.14,11.71,11.71,0,0,1,2-1.47,3.46,3.46,0,0,1,1.58-.54,1.73,1.73,0,0,1,.43.06l.45.14.37.15a.69.69,0,0,0,.21.07l.12-.07.26-.15.34-.14a1.19,1.19,0,0,1,.38-.06,1.47,1.47,0,0,1,.64.17,3.08,3.08,0,0,1,.66.44,3.67,3.67,0,0,1,.56.61,1.73,1.73,0,0,1,.32.67,2,2,0,0,0,.09.29l.07.13a1.85,1.85,0,0,1,.37.47,1.49,1.49,0,0,1,.14.71,4.55,4.55,0,0,1-.11.76l-.26,1.26q-.15.7-.26,1.47a9.52,9.52,0,0,0-.11,1.4,15.78,15.78,0,0,0,.2,2.75,7.63,7.63,0,0,0,.52,1.8,2.42,2.42,0,0,0,.72,1,1.38,1.38,0,0,0,.81.29,3.63,3.63,0,0,0,1.84-.44,4.55,4.55,0,0,0,1.34-1.2l.27-.34a2,2,0,0,1,.23-.25.75.75,0,0,1,.26-.16,1.09,1.09,0,0,1,.36-.05.89.89,0,0,1,.54.22A.69.69,0,0,1,272.88,24.66Zm-10.55-7.54a4.49,4.49,0,0,0-.18-1.52q-.18-.47-.43-.47a1.77,1.77,0,0,0-.68.15,3.53,3.53,0,0,0-.69.39,5.33,5.33,0,0,0-.62.52,4.37,4.37,0,0,0-.48.54l-.79,1.16q-.44.65-.9,1.39t-.89,1.51q-.43.77-.76,1.53a12.53,12.53,0,0,0-.54,1.46,4.45,4.45,0,0,0-.21,1.27,2.2,2.2,0,0,0,.18,1,.64.64,0,0,0,.63.36,1.57,1.57,0,0,0,.75-.35,11.24,11.24,0,0,0,1.09-.89q.59-.54,1.17-1.17a10.15,10.15,0,0,0,1-1.21q.42-.63.84-1.35t.77-1.46a10.56,10.56,0,0,0,.57-1.46A4.65,4.65,0,0,0,262.34,17.12Z"/><path class="cls-1" d="M321,18.81a1.39,1.39,0,0,1-.17.59,7.54,7.54,0,0,1-.47.8,7.62,7.62,0,0,1-.47.65l-.62.76-.64.76q-.32.37-.58.63-1,1-2.14,2a18.22,18.22,0,0,1-2.37,1.69A13.45,13.45,0,0,1,311,27.83a8.41,8.41,0,0,1-2.72.45,4.8,4.8,0,0,1-2.12-.44,3.13,3.13,0,0,1-1.42-1.41,4.74,4.74,0,0,1-.36-1q-.18-.69-.34-1.47t-.26-1.54q-.11-.76-.14-1.23,0-.32-.05-.73t-.1-.78a3.32,3.32,0,0,0-.16-.62q-.1-.25-.25-.25a.68.68,0,0,0-.33.09,5.94,5.94,0,0,0-1,.82q-.73.66-1.66,1.67t-2,2.3q-1,1.29-2,2.72-.35.53-.72,1.17t-.73,1.3l-.7,1.27q-.34.62-.62,1.09a2.11,2.11,0,0,1-.46.48,3,3,0,0,1-.52.33,2.46,2.46,0,0,1-.47.18,1.44,1.44,0,0,1-.32.05,1.58,1.58,0,0,1-.73-.18,2.16,2.16,0,0,1-.6-.45,2.12,2.12,0,0,1-.4-.62,1.79,1.79,0,0,1-.15-.7,6.77,6.77,0,0,1,.06-.69q.06-.5.16-1.13t.19-1.32q.1-.69.17-1.27.14-1.12.29-2.46t.28-2.69q.13-1.35.25-2.65t.17-2.33q0-.33.05-.89l.08-1.23q0-.68.08-1.41t.08-1.43q0-.7.07-1.32l0-1q0-.49.06-.92a7,7,0,0,1,.14-.85,8.17,8.17,0,0,1,.25-.85,8.88,8.88,0,0,1,.4-.94,1.88,1.88,0,0,1,.28-.42,2.5,2.5,0,0,1,.47-.42,2.93,2.93,0,0,1,.6-.33,1.74,1.74,0,0,1,.66-.13,1.71,1.71,0,0,1,1.26.52,2,2,0,0,1,.52,1.45,5.34,5.34,0,0,1-.06.7q-.06.44-.14.86l-.14.76a3.47,3.47,0,0,0-.06.43q-.05.25-.14.89t-.2,1.51q-.11.87-.24,1.9T295,14.7l-.25,2-.22,1.76q-.1.77-.15,1.27t-.07.56q-.05.35-.13,1T294,22.63q-.1.68-.18,1.27l-.11.86.41-.62.53-.81.52-.78.37-.54q.28-.42.66-.95T297,20q.42-.55.88-1.09t.88-1q.54-.56,1.23-1.16a12.92,12.92,0,0,1,1.44-1.09,8.87,8.87,0,0,1,1.55-.81,4.11,4.11,0,0,1,1.53-.32,1.73,1.73,0,0,1,.48.09,2.78,2.78,0,0,1,.58.25,2.57,2.57,0,0,1,.54.41,1.43,1.43,0,0,1,.35.56,9.3,9.3,0,0,1,.39,1.54q.16.91.29,1.88t.27,1.93q.14,1,.32,1.72a5.65,5.65,0,0,0,.41,1.24q.24.47.59.47t.89,0a6.11,6.11,0,0,0,.81-.12,7.17,7.17,0,0,0,.8-.23,7.31,7.31,0,0,0,.86-.37q1-.47,1.67-.9a15.84,15.84,0,0,0,1.33-.89q.62-.47,1.27-1l1.47-1.33q.88-.81,1.54-1.31a2,2,0,0,1,1-.5.57.57,0,0,1,.54.31.94.94,0,0,1,.1.29A1.73,1.73,0,0,1,321,18.81Z"/><path class="cls-1" d="M342.83,16.52a2.33,2.33,0,0,1-.11.67,5,5,0,0,1-.27.7q-.17.35-.38.7a7,7,0,0,1-.44.65,25.75,25.75,0,0,1-2.19,2.58q-1.17,1.2-2.35,2.26a13.06,13.06,0,0,1-1.3,1,11.39,11.39,0,0,1-1.34.79,7.27,7.27,0,0,1-1.3.51,4.42,4.42,0,0,1-1.18.18,2.24,2.24,0,0,1-1.28-.42,4.43,4.43,0,0,1-1.08-1.06,5.69,5.69,0,0,1-.74-1.38,4,4,0,0,1-.27-1.37q-.21.32-.62.84l-.84,1.07-.82,1-.54.64a16.81,16.81,0,0,1-1.3,1.23q-.74.63-1.47,1.14a11.92,11.92,0,0,1-1.36.83,2.38,2.38,0,0,1-1,.33,4.59,4.59,0,0,1-1.49-.25,3.93,3.93,0,0,1-1.27-.71,3.47,3.47,0,0,1-.89-1.15,3.53,3.53,0,0,1-.33-1.56,8.45,8.45,0,0,1,.24-1.89,17.6,17.6,0,0,1,.65-2.14,21.41,21.41,0,0,1,1-2.26q.58-1.14,1.26-2.22a24,24,0,0,1,1.43-2,16,16,0,0,1,1.55-1.72,9.44,9.44,0,0,1,3-2,8.73,8.73,0,0,1,3.27-.63,1.94,1.94,0,0,1,.74.12,1.62,1.62,0,0,1,.51.33,2,2,0,0,1,.36.47q.15.26.27.53a4,4,0,0,0,.29.34q.2.22.41.48a4.8,4.8,0,0,1,.37.53,1,1,0,0,1,.16.47,3.38,3.38,0,0,1-.11.8q-.11.43-.22,1t-.22,1.27a11.33,11.33,0,0,0-.11,1.64,11.18,11.18,0,0,0,.08,1.23,9.61,9.61,0,0,0,.24,1.32,4.49,4.49,0,0,0,.4,1q.24.43.54.43a2.51,2.51,0,0,0,.66-.08,2.4,2.4,0,0,0,.55-.23,4.52,4.52,0,0,0,.54-.36l.62-.46a22.19,22.19,0,0,0,2.19-1.83l2.24-2.13q.32-.3.66-.67a9.64,9.64,0,0,1,.7-.69,4.94,4.94,0,0,1,.71-.53,1.31,1.31,0,0,1,.67-.21Q342.83,15.7,342.83,16.52Zm-14.19-2.21a1.43,1.43,0,0,0,0-.2,1.24,1.24,0,0,0-.06-.24,3.63,3.63,0,0,0-1.27.45,7.13,7.13,0,0,0-1.49,1.15,16.76,16.76,0,0,0-1.71,2,28.92,28.92,0,0,0-1.92,3l-.56,1a11.7,11.7,0,0,0-.55,1.19,8.57,8.57,0,0,0-.41,1.34,6.91,6.91,0,0,0-.16,1.5.57.57,0,0,0,.17.45.51.51,0,0,0,.34.15,2,2,0,0,0,1-.47,10.83,10.83,0,0,0,1.39-1.24,23.26,23.26,0,0,0,1.53-1.77q.78-1,1.45-2a20.72,20.72,0,0,0,1.17-2.07,9,9,0,0,0,.69-1.85l.12-.62q.07-.35.13-.69t.1-.62A3.73,3.73,0,0,0,328.64,14.31Z"/><path class="cls-1" d="M367.82,17.24a1.4,1.4,0,0,1-.07.36,2.73,2.73,0,0,1-.27.58,5.28,5.28,0,0,1-.58.77,8.8,8.8,0,0,1-1,.94A15.13,15.13,0,0,1,364.4,21q-.92.58-2.06,1.2t-2.4,1.28q-1.27.66-2.51,1.27L355,25.89l-2.13,1a9.37,9.37,0,0,0-1.22.68l-1.18.76a10.68,10.68,0,0,1-1.11.62,2.36,2.36,0,0,1-1,.25,3.8,3.8,0,0,1-1-.12,2.54,2.54,0,0,1-.83-.38A1.83,1.83,0,0,1,346,28a2.11,2.11,0,0,1-.21-1,1.13,1.13,0,0,1,.33-.82,3.24,3.24,0,0,1,.82-.6,7.22,7.22,0,0,1,1-.44l.92-.33q.53-.19,1-.33a4,4,0,0,0,.76-.29,4.19,4.19,0,0,0,.9-.68,8.12,8.12,0,0,0,.8-.91,12.29,12.29,0,0,0,.71-1.05l.63-1.06a3.73,3.73,0,0,0,.33-.72q.14-.4.25-.81a7.13,7.13,0,0,0,.16-.76,4.39,4.39,0,0,0,.05-.62,3,3,0,0,0-.32-1.49.92.92,0,0,0-.79-.55,2,2,0,0,0-.91.29,8.82,8.82,0,0,0-1.07.7q-.54.41-1,.87t-.79.77q-.7.76-1.49,1.7t-1.49,2a24.13,24.13,0,0,0-1.3,2.06,11.79,11.79,0,0,0-.92,2,7,7,0,0,0-.32,1.37q-.11.77-.17,1.62t-.1,1.71q0,.87-.09,1.68-.09,1.32-.1,2.63a13.12,13.12,0,0,1-.22,2.4,2.29,2.29,0,0,1-.25.67,2.18,2.18,0,0,1-.45.56,2.15,2.15,0,0,1-.64.4,2.18,2.18,0,0,1-.83.15,1.9,1.9,0,0,1-.64-.13,2.63,2.63,0,0,1-.68-.37,2.49,2.49,0,0,1-.54-.54,1.11,1.11,0,0,1-.22-.66q0-.37,0-.89t.1-1.11q.06-.59.13-1.2t.14-1.14l.12-1q.05-.42.09-.63.23-1.67.42-3.77t.3-4.32q0-.56.06-1.41l.05-1.7q0-.85.05-1.56t0-1a6.45,6.45,0,0,1,.72-2.76,1.81,1.81,0,0,1,1.63-.91,1.86,1.86,0,0,1,.81.18,2.26,2.26,0,0,1,.68.49,2.63,2.63,0,0,1,.47.68,1.7,1.7,0,0,1,.18.74,6.79,6.79,0,0,1-.07.86q-.07.53-.17,1.11t-.21,1.14q-.11.56-.2.95l.8-1.3q.43-.69.87-1.34t.88-1.23a8.5,8.5,0,0,1,.84-1q.74-.72,1.49-1.34A11.36,11.36,0,0,1,350.93,13a7.94,7.94,0,0,1,1.65-.72,6.15,6.15,0,0,1,1.81-.26,3.29,3.29,0,0,1,1.47.36,4.13,4.13,0,0,1,1.31,1,5.55,5.55,0,0,1,.95,1.63,6,6,0,0,1,.37,2.17,5,5,0,0,1-.18,1.29,8.5,8.5,0,0,1-.5,1.38,8.7,8.7,0,0,1-.76,1.32,7,7,0,0,1-1,1.13q1.11-.56,2.34-1.23t2.47-1.39l2.44-1.45q1.2-.73,2.22-1.38.51-.33.89-.55a1.54,1.54,0,0,1,.78-.22.58.58,0,0,1,.63.63,2.27,2.27,0,0,1,0,.28A2,2,0,0,0,367.82,17.24Z"/><path class="cls-1" d="M392.13,17a2.7,2.7,0,0,1-.36,1.28,4.78,4.78,0,0,1-1.15,1.34,28.37,28.37,0,0,1-3.68,2.62,47.28,47.28,0,0,1-4.61,2.43q-2.46,1.14-4.66,2t-4.32,1.4l-.37.06a4.19,4.19,0,0,1-.51,0,3.3,3.3,0,0,1-1.1-.18,2.89,2.89,0,0,1-.87-.47,2.12,2.12,0,0,1-.57-.7,1.94,1.94,0,0,1-.2-.88.84.84,0,0,1,.27-.61,2.9,2.9,0,0,1,.74-.51,9,9,0,0,1,1.09-.46l1.31-.43.49-.12.59-.13.62-.13.54-.12a5.57,5.57,0,0,0,1.42-1.14,10,10,0,0,0,1.2-1.6,9.07,9.07,0,0,0,.82-1.73,4.75,4.75,0,0,0,.3-1.5q0-1.79-.81-1.79a2.55,2.55,0,0,0-.83.18,8.25,8.25,0,0,0-1,.47q-.55.29-1.11.64t-1,.7a12,12,0,0,0-1.45,1.4q-.8.89-1.6,1.93t-1.5,2.14q-.7,1.1-1.18,2-.09.79-.18,1.73t-.18,2.07q-.11,1.13-.15,2.29t-.1,2.28q-.05,1.11-.12,2.1a13.72,13.72,0,0,1-.23,1.77,2.41,2.41,0,0,1-.42,1.58,1.49,1.49,0,0,1-1.2.49,2.38,2.38,0,0,1-.9-.19,4.26,4.26,0,0,1-.88-.48,3.27,3.27,0,0,1-.67-.62,1,1,0,0,1-.26-.63,6.88,6.88,0,0,1,0-.74l.1-.9q.09-.69.16-1.33l.13-1.19.11-1,.09-.72q.25-1.71.43-3.77t.29-4.32q.09-2.09.11-3.87a22.29,22.29,0,0,1,.23-3.07,5,5,0,0,1,.69-2,1.9,1.9,0,0,1,2.33-.54,2.23,2.23,0,0,1,.62.49,2.17,2.17,0,0,1,.4.67,2.06,2.06,0,0,1,.14.74,8.09,8.09,0,0,1-.18,1.59q-.18.91-.36,2.12.37-.63.8-1.27t.88-1.24q.45-.6.9-1.12a10.21,10.21,0,0,1,.87-.91,12.52,12.52,0,0,1,3.39-2.32,7.57,7.57,0,0,1,1.85-.55,13,13,0,0,1,2.15-.17,2.12,2.12,0,0,1,1.39.51,4.68,4.68,0,0,1,1,1.24,6.44,6.44,0,0,1,.66,1.55,5.46,5.46,0,0,1,.23,1.45,4.78,4.78,0,0,1-.25,1.43,11.46,11.46,0,0,1-.65,1.6,13,13,0,0,1-.9,1.54,7.77,7.77,0,0,1-1,1.23q1.23-.53,2.58-1.21T385.22,20q1.29-.75,2.44-1.53a22.89,22.89,0,0,0,2-1.5,3.1,3.1,0,0,1,.85-.54,2.24,2.24,0,0,1,.85-.18.9.9,0,0,1,.58.16A.83.83,0,0,1,392.13,17Z"/><path class="cls-1" d="M406.35,15.63a4.65,4.65,0,0,1-.21.94q-.19.64-.48,1.5T405,20q-.38,1-.76,2.12t-.75,2.19q-.37,1.1-.65,2.08l-.15.48-.34,1.11-.47,1.53-.54,1.75q-.27.9-.54,1.75l-.48,1.54L400,35.64l-.16.5q-.14.47-.31,1.11a5.66,5.66,0,0,1-.46,1.19,3,3,0,0,1-.76.94,1.91,1.91,0,0,1-1.25.39,1.69,1.69,0,0,1-.78-.18,1.92,1.92,0,0,1-.58-.45,2,2,0,0,1-.37-.62,1.88,1.88,0,0,1-.13-.68,3.78,3.78,0,0,1,.19-1q.19-.64.48-1.41t.63-1.62q.34-.85.64-1.68l.47-1.25L398,29.6l.52-1.41.5-1.34.4-1.05q-.4.33-.93.72t-1.12.78q-.59.4-1.24.76t-1.29.64a8.86,8.86,0,0,1-1.27.45,4.59,4.59,0,0,1-1.19.17,5.34,5.34,0,0,1-2.14-.4,5.08,5.08,0,0,1-1.56-1,4.37,4.37,0,0,1-1-1.37,3.62,3.62,0,0,1-.33-1.45,9.16,9.16,0,0,1,.11-1.3q.11-.77.32-1.66t.48-1.85q.28-1,.6-1.85t.66-1.66a8.09,8.09,0,0,1,.69-1.27,3.93,3.93,0,0,1,1-1.11,2,2,0,0,1,1.08-.32,2.13,2.13,0,0,1,.89.16,1.29,1.29,0,0,1,.54.44,1.69,1.69,0,0,1,.26.63,3.85,3.85,0,0,1,.07.76,1.92,1.92,0,0,1-.2.7q-.2.46-.5,1.09l-.62,1.29a16,16,0,0,0-.65,1.62,16.85,16.85,0,0,0-.51,1.82,8.81,8.81,0,0,0-.21,1.92.9.9,0,0,0,.18.56,1.34,1.34,0,0,0,.41.36,2,2,0,0,0,.49.19,1.85,1.85,0,0,0,.41.06,3.78,3.78,0,0,0,1.32-.25,9.8,9.8,0,0,0,1.36-.63q.68-.38,1.32-.81t1.22-.78a11.53,11.53,0,0,0,1.05-.76,5.45,5.45,0,0,0,1-1,4.73,4.73,0,0,0,.47-.94q.27-.68.57-1.54t.59-1.77q.29-.91.5-1.64a3.61,3.61,0,0,1,.41-.92,3.08,3.08,0,0,1,.54-.65,2.26,2.26,0,0,1,.6-.39,1.46,1.46,0,0,1,.57-.13,3.52,3.52,0,0,1,1,.11,1,1,0,0,1,.55.36,1.46,1.46,0,0,1,.25.69,7.7,7.7,0,0,1,.06,1.06Z"/><path class="cls-1" d="M455.52,4.31a.87.87,0,0,1-.07.4q-.07.13-.18.29t-.24.4a2.94,2.94,0,0,0-.24.72q-.11.49-.2.86t-.17.7q-.07.33-.11.68a6.37,6.37,0,0,0,0,.8q0,.79,0,1.56t-.11,1.61q-.07.83-.17,1.74t-.22,2q-.18,1.49-.35,3.16a32.91,32.91,0,0,0-.18,3.45v1.11q0,.63,0,1.35t.07,1.47q0,.75.13,1.45a.53.53,0,0,0,.15.11l.18.11a5,5,0,0,1,.91.7,1.13,1.13,0,0,1,.28.81,1.62,1.62,0,0,1-.23.78,3.08,3.08,0,0,1-.61.76,3.37,3.37,0,0,1-.86.58,2.3,2.3,0,0,1-1,.23,2.36,2.36,0,0,1-1.69-.63,4.31,4.31,0,0,1-1-1.63,9.44,9.44,0,0,1-.53-2.21,19.9,19.9,0,0,1-.15-2.42v-.62q0-.49.1-1.49t.25-2.29q.15-1.28.33-2.72t.39-2.82q.2-1.38.39-2.58t.33-2l-.59.76-.84,1.12-1,1.3-1,1.34-.91,1.24-.73,1q-.67.91-1.28,1.81L443,21.15a1.65,1.65,0,0,0-.17.23l-.25.4-.28.43a2.14,2.14,0,0,1-.25.32,5.27,5.27,0,0,1-2.71,2.07,6.89,6.89,0,0,1-1.52-.65,4.2,4.2,0,0,1-.94-.76,4.37,4.37,0,0,1-.62-.91q-.25-.49-.59-1l-.63-1.09-.49-.88q-.46-.83-.86-1.74t-.76-1.86q-.25-.79-.43-1.35l-.34-1.05-.32-1q-.16-.51-.35-1.2,0,.12-.14.6l-.26,1.18-.35,1.56q-.19.86-.39,1.76L430,17.9l-.33,1.54q-.15.69-.25,1.13l-.12.54a11,11,0,0,0-.35,2.67q0,.26,0,.82t0,1.18q0,.62,0,1.2t0,.9a1.79,1.79,0,0,1-.16.65,3,3,0,0,1-.44.74,3,3,0,0,1-.65.61,1.34,1.34,0,0,1-.77.25,8.21,8.21,0,0,1-1-.05,2.18,2.18,0,0,1-.73-.21,1.59,1.59,0,0,1-.54-.46,3.37,3.37,0,0,1-.42-.77,1.56,1.56,0,0,1-.11-.34q0-.18-.06-.47t0-.69q0-.41,0-1a4.57,4.57,0,0,1,.13-.78q.13-.59.33-1.42t.45-1.78q.25-1,.5-1.88l.47-1.74.36-1.33.51-1.83q.26-.95.52-1.92l.51-1.92q.25-1,.47-1.82a10.64,10.64,0,0,1,.21-1.28q.11-.47.28-1a5.37,5.37,0,0,1,.43-1,2.68,2.68,0,0,1,.62-.75,1.29,1.29,0,0,1,.85-.3,6.7,6.7,0,0,1,2.28.32,3.05,3.05,0,0,1,1.37,1,4.92,4.92,0,0,1,.82,1.7q.3,1,.62,2.5a4.5,4.5,0,0,0,.21.71l.26.68a31,31,0,0,0,1.45,3.63,32,32,0,0,0,2,3.56,4.11,4.11,0,0,0,.83-.94q.38-.57.83-1.4t.82-1.36a9.3,9.3,0,0,1,.94-1.22q.19-.21.62-.73l1-1.21,1.17-1.47,1.16-1.47,1-1.23.6-.76.3-.36.26-.31q.19-.28.63-.86l.92-1.23.93-1.24.66-.89a1,1,0,0,1,.93-.37,1.72,1.72,0,0,1,.79.22,3.94,3.94,0,0,1,.78.54,3.5,3.5,0,0,1,.6.67,1.15,1.15,0,0,1,.24.62Z"/><path class="cls-1" d="M480.25,19.14a2.47,2.47,0,0,1-.31,1,10.75,10.75,0,0,1-.84,1.39q-.54.76-1.27,1.63T476.23,25q-.93,1-2,2t-2.32,1.86a11.63,11.63,0,0,1-2.39,1.36,5.89,5.89,0,0,1-2.23.48,5.11,5.11,0,0,1-2.14-.41,4.66,4.66,0,0,1-1.55-1.12,6,6,0,0,1-1-1.63,11,11,0,0,1-.64-2,14.67,14.67,0,0,1-.33-2.08q-.09-1.05-.09-2,0-.37.05-1.11t.15-1.56q.1-.82.21-1.58a10.37,10.37,0,0,1,.24-1.2,3.49,3.49,0,0,1,1.21-1.63,3.17,3.17,0,0,1,2-.74q1.14,0,1.14,1.37a8.93,8.93,0,0,1-.11,1.38q-.11.73-.25,1.43-.23,1.28-.32,2.31t-.09,1.82a14,14,0,0,0,.11,1.74,8.92,8.92,0,0,0,.31,1.5,3.39,3.39,0,0,0,.51,1.06.9.9,0,0,0,.73.4,6.43,6.43,0,0,0,1.09-.1,4.7,4.7,0,0,0,1.35-.52,20.89,20.89,0,0,0,3.22-2.23q.6-.49,1.36-1.17t1.52-1.39q.76-.71,1.42-1.4a15.35,15.35,0,0,0,1.05-1.18l.15-.22.22-.27a1.3,1.3,0,0,1,.27-.24.53.53,0,0,1,.29-.1.83.83,0,0,1,.41.08,1,1,0,0,1,.29.48A1.91,1.91,0,0,1,480.25,19.14ZM469.32,4.68a3.4,3.4,0,0,1-.18,1.1,3.61,3.61,0,0,1-.51,1,2.36,2.36,0,0,1-2.06.93,5.89,5.89,0,0,1-1-.09,4.7,4.7,0,0,1-.91-.25,2.07,2.07,0,0,1-.67-.4.75.75,0,0,1-.26-.56A2.74,2.74,0,0,1,464,5.23a4.81,4.81,0,0,1,.73-1.12,4.52,4.52,0,0,1,1-.86,1.92,1.92,0,0,1,1-.34,6.69,6.69,0,0,1,1.09.08,2.29,2.29,0,0,1,.8.27,1.29,1.29,0,0,1,.5.54A2,2,0,0,1,469.32,4.68Z"/><path class="cls-1" d="M503.07,23.89a1.31,1.31,0,0,1-.09.38,4.83,4.83,0,0,1-.22.53l-.25.52a1.94,1.94,0,0,1-.21.35,20,20,0,0,1-1.42,1.82A10.48,10.48,0,0,1,499.29,29a7.24,7.24,0,0,1-1.8,1,5.82,5.82,0,0,1-2.07.36,2.78,2.78,0,0,1-1-.21,4.46,4.46,0,0,1-1-.58,5.12,5.12,0,0,1-.91-.88,6.05,6.05,0,0,1-.71-1.11,8.79,8.79,0,0,1-.43-1.1q-.2-.62-.36-1.34a14.37,14.37,0,0,1-.25-1.48,13.16,13.16,0,0,1-.09-1.5V21.6A14.88,14.88,0,0,1,489.7,23q-.54.74-1.14,1.48t-1.27,1.44q-.66.7-1.29,1.28a13.13,13.13,0,0,1-3.61,2.4,9.56,9.56,0,0,1-3.82.8,2.09,2.09,0,0,1-1.2-.35,2.87,2.87,0,0,1-.85-.91A4.45,4.45,0,0,1,476,28a5.18,5.18,0,0,1-.17-1.27,10.83,10.83,0,0,1,.08-1.42,5.15,5.15,0,0,1,.22-1,37.51,37.51,0,0,1,1.67-4.1,25.24,25.24,0,0,1,2.29-3.82q.4-.56.91-1.15t1-1.12a12.65,12.65,0,0,1,1.12-1,7.68,7.68,0,0,1,1.14-.76,8,8,0,0,1,1.53-.6,7.78,7.78,0,0,1,2.11-.25,1.92,1.92,0,0,1,1,.29,3.09,3.09,0,0,1,.83.76,4.57,4.57,0,0,1,.61,1.06,5,5,0,0,1,.33,1.23q.09-.67.21-1.55t.25-1.86q.12-1,.25-2t.21-2q.12-1.37.29-2.37a4.62,4.62,0,0,1,.38-1.37,2.12,2.12,0,0,1,.63-.69A2,2,0,0,1,494,2.71a3,3,0,0,1,.82.11,2.34,2.34,0,0,1,.66.29,1.52,1.52,0,0,1,.44.42.86.86,0,0,1,.16.48,4.75,4.75,0,0,1-.08.7q-.08.47-.22,1.25l-.34,1.86q-.2,1.09-.47,2.57,0,.16-.09.69t-.16,1.11q-.09.58-.17,1.06t-.1.57q-.19,1.34-.3,2.52t-.11,2.38a29.94,29.94,0,0,0,.19,3.66,15,15,0,0,0,.51,2.56,4.67,4.67,0,0,0,.71,1.5,1.08,1.08,0,0,0,.8.49,4.13,4.13,0,0,0,1-.13,3.8,3.8,0,0,0,1-.46,7.62,7.62,0,0,0,1.11-.85,15.61,15.61,0,0,0,1.27-1.32,9.12,9.12,0,0,1,.78-.79,1.32,1.32,0,0,1,.91-.33q.42,0,.54.27A1.46,1.46,0,0,1,503.07,23.89ZM487.6,21.08a6,6,0,0,0,.51-.72q.25-.4.47-.86a1,1,0,0,1-.44-.57,2.72,2.72,0,0,1-.09-.68q0-.18,0-.42t0-.48q0-.24,0-.45t0-.33A1.62,1.62,0,0,0,488,16a4.21,4.21,0,0,0-.33-.65,2.87,2.87,0,0,0-.41-.54.62.62,0,0,0-.41-.22,1,1,0,0,0-.49.23,7,7,0,0,0-.71.61q-.4.38-.84.89t-.9,1.07q-.45.56-.88,1.14t-.76,1.11q-.56.9-1,1.7t-.73,1.42a9.78,9.78,0,0,0-.68,1.78,5.66,5.66,0,0,0-.18,1.34q0,1.09.39,1.09a2.85,2.85,0,0,0,.89-.18,6.17,6.17,0,0,0,1.33-.71,17.44,17.44,0,0,0,2.6-2.09q1-1,1.64-1.74Z"/><path class="cls-1" d="M534.6,20.32a1.56,1.56,0,0,1-.46,1.22,2.36,2.36,0,0,1-1.58.41,2.32,2.32,0,0,1-.48-.07l-.64-.15-.62-.15a2,2,0,0,0-.41-.07l-.3,0-.42,0-.47,0-.41,0-.71,0-1-.07-1-.07-.66,0-1,0-1.37.07-1.38.07-1,0a7.69,7.69,0,0,1-1-.06,2.68,2.68,0,0,1-.79-.22,1.16,1.16,0,0,1-.51-.45,1.46,1.46,0,0,1-.18-.76,1.14,1.14,0,0,1,.27-.77,2.2,2.2,0,0,1,.69-.53,4.37,4.37,0,0,1,.93-.33,9.17,9.17,0,0,1,1-.18q.48-.06.88-.08l.57,0a4.09,4.09,0,0,1,.6.06l.69.13,2.12,0,1.59,0,1.2-.07.91-.1a11.07,11.07,0,0,1,1.56-.11,2.52,2.52,0,0,1,.63.11q.39.11.79.25t.77.32A4.74,4.74,0,0,1,534,19a.82.82,0,0,1,.24.22,1.56,1.56,0,0,1,.19.33,2.19,2.19,0,0,1,.12.38A1.6,1.6,0,0,1,534.6,20.32Z"/><path class="cls-1" d="M581.63,28.78a2.06,2.06,0,0,1-.17.83,2.16,2.16,0,0,1-.46.68,2.2,2.2,0,0,1-.7.47,2.24,2.24,0,0,1-.89.18,1.54,1.54,0,0,1-.86-.28,4.37,4.37,0,0,1-.82-.72,8,8,0,0,1-.76-1,12.81,12.81,0,0,1-.65-1.12q-.29-.56-.52-1.07l-.37-.84q-.19-.47-.39-.88a9.22,9.22,0,0,1-.4-1l-.18-.53q-.06-.18-.11-.27l-.07-.16a1.66,1.66,0,0,1-.06-.18,2.17,2.17,0,0,1-.76.18l-.9,0a1.26,1.26,0,0,0-.3.06l-.48.15-.56.18-.55.17q-.84.21-1.83.4l-2.06.38-2.19.37-2.24.38a.56.56,0,0,0-.21.07,1.08,1.08,0,0,0-.25.27l-.47.68-.9,1.3q-.67,1-1.27,1.68a16.14,16.14,0,0,1-1.12,1.22,3.77,3.77,0,0,1-1.08.77,2.8,2.8,0,0,1-1.19.26,4.73,4.73,0,0,1-1.44-.2,3.67,3.67,0,0,1-1.06-.52,2.37,2.37,0,0,1-.65-.69,1.36,1.36,0,0,1-.22-.69.85.85,0,0,1,.51-.83,5.84,5.84,0,0,1,1.41-.4,2,2,0,0,1,.19-.26l.46-.56.52-.62q.25-.31.36-.47l1.43-2q.75-1,1.64-2.36v0l.75-1.11.55-.83.55-.79.71-1q1.09-1.53,1.91-2.59l1.34-1.77,1.2-1.88q.25-.39.47-.78l.44-.76q.21-.37.38-.69a5.86,5.86,0,0,0,.25-.55Q569.67,4,571.17,4a4.68,4.68,0,0,1,1.05.1,1.21,1.21,0,0,1,.62.33,1.27,1.27,0,0,1,.3.62,4.94,4.94,0,0,1,.08,1v.85q0,.31,0,.54t0,.46q0,.23,0,.62.42.9.82,1.85t.75,1.88l.31.89.56,1.59.69,1.93.67,1.92.54,1.55q.23.65.3.83A19.64,19.64,0,0,0,579,24.12l.24.49q.1.21.23.44t.34.53l.56.77A5.09,5.09,0,0,1,581.63,28.78Zm-11.74-8.86,1.57-.4q.8-.21,1.49-.42l-.58-1.79q-.3-.93-.62-1.85t-.66-1.79a16.33,16.33,0,0,0-.7-1.59q-1.49,2-3,4.29t-2.86,4.59q.53-.05,1.11-.08a4,4,0,0,0,.93-.13l.85-.25.76-.19.78-.18Z"/><path class="cls-1" d="M616.41,16.29a4.37,4.37,0,0,1-.69,2.17,13.56,13.56,0,0,1-1.81,2.38,25.15,25.15,0,0,1-2.5,2.32,28.08,28.08,0,0,1-2.76,2,18.9,18.9,0,0,1-2.61,1.4,5.44,5.44,0,0,1-2,.53,3.56,3.56,0,0,1-1.91-.48,4.12,4.12,0,0,1-1.3-1.28,6.85,6.85,0,0,1-.82-1.83,14,14,0,0,1-.44-2.12,10.94,10.94,0,0,1-.7,1.37q-.44.74-.95,1.46t-1,1.36q-.52.64-1,1.1a14.72,14.72,0,0,1-1.35,1.26A10,10,0,0,1,593,29a9,9,0,0,1-1.78.73,7,7,0,0,1-2,.27,3.12,3.12,0,0,1-1.52-.36,3.41,3.41,0,0,1-1.1-.94,4.08,4.08,0,0,1-.66-1.33,5.3,5.3,0,0,1-.22-1.5,8.71,8.71,0,0,1,.11-1.38q.11-.71.25-1.44l.27-1.44a13.36,13.36,0,0,0,.18-1.38q0-.51.07-1.09l.07-1.17q0-.59.1-1.18t.15-1.1a3.9,3.9,0,0,1,.2-.7,1.78,1.78,0,0,1,.38-.59,1.74,1.74,0,0,1,.62-.4,2.52,2.52,0,0,1,.92-.15,1.74,1.74,0,0,1,1.56.66,3.58,3.58,0,0,1,.45,2q0,.4-.05.93t-.14,1.1q-.09.57-.2,1.15t-.25,1.11q-.3,1.18-.56,2.29a8.78,8.78,0,0,0-.26,2,1.92,1.92,0,0,0,.2.93.58.58,0,0,0,.5.37,3.18,3.18,0,0,0,1.57-.47,9.23,9.23,0,0,0,1.59-1.16,15.6,15.6,0,0,0,1.47-1.51q.69-.82,1.19-1.5a11.39,11.39,0,0,0,.92-1.56q.47-.93.91-2t.87-2l.76-1.78a4.86,4.86,0,0,1,1.05-1.6,1.74,1.74,0,0,1,1.16-.56,1.52,1.52,0,0,1,1,.26,1.21,1.21,0,0,1,.32,1,7.91,7.91,0,0,1-.07.86q-.07.58-.16,1.22t-.16,1.23a8.18,8.18,0,0,0-.07.89q0,.28,0,.69t0,.83q0,.43.06.83t.1.69q.07.3.23.77a6.08,6.08,0,0,0,.4.92,4.13,4.13,0,0,0,.52.77.8.8,0,0,0,.6.33,4.65,4.65,0,0,0,1.94-.47,13.08,13.08,0,0,0,2.1-1.24A25.11,25.11,0,0,0,610.76,20q1.08-1,2.1-1.93l.83-.82q.41-.41.8-.74a6.68,6.68,0,0,1,.72-.54,1.14,1.14,0,0,1,.58-.21.59.59,0,0,1,.45.18A.49.49,0,0,1,616.41,16.29Z"/><path class="cls-1" d="M632.11,15.29a1.06,1.06,0,0,1-.41.79,4.52,4.52,0,0,1-1.08.69,10.9,10.9,0,0,1-1.51.57q-.84.25-1.7.46t-1.63.33l-1.33.22q-2,.28-3.28.42a7,7,0,0,0-1.87.39q-.32,1.32-.64,2.73t-.59,2.65q-.26,1.23-.43,2.14a8.52,8.52,0,0,0-.17,1.23,3.84,3.84,0,0,0,0,.4,1.59,1.59,0,0,0,.06.31l.09.27.1.31a3.46,3.46,0,0,1,.14.47q.07.3.13.6t.1.55a3.06,3.06,0,0,1,0,.36,2.08,2.08,0,0,1-.15.73,3,3,0,0,1-.41.75,2.42,2.42,0,0,1-.63.59,1.5,1.5,0,0,1-.83.24,1.57,1.57,0,0,1-.87-.25,2.83,2.83,0,0,1-.71-.67,4.83,4.83,0,0,1-.55-.93,8.59,8.59,0,0,1-.4-1,7.85,7.85,0,0,1-.24-1,4.44,4.44,0,0,1-.08-.75q0-.3.06-.93a7.81,7.81,0,0,1,.24-1.28q.54-2.06.84-3.38t.44-2.13q.14-.8.18-1.17l.06-.51-.65,0-.87.07-.83.07-.53,0a8.38,8.38,0,0,1-1.56-.12,2.08,2.08,0,0,1-1-.48,2,2,0,0,1-.56-1,7.28,7.28,0,0,1-.17-1.73,13.75,13.75,0,0,0,1.47-.1,8.68,8.68,0,0,1,1.12-.08l.71,0,1.26-.1,1.33-.11.92-.1q0-.19.14-.62l.24-.93q.13-.51.27-1l.25-.88q.09-.26.23-.87l.3-1.26.29-1.2.17-.71A13.18,13.18,0,0,1,618,6.93a5.48,5.48,0,0,1,.55-1.1,2.77,2.77,0,0,1,.68-.72,1.31,1.31,0,0,1,.77-.26,1.77,1.77,0,0,1,1.37.47,2.05,2.05,0,0,1,.42,1.42,5.23,5.23,0,0,1-.11,1,9.73,9.73,0,0,1-.3,1.14q-.39,1.23-.59,2.06t-.33,1.45q-.12.62-.19,1.15t-.19,1.16a1.65,1.65,0,0,0,0,.27q0,.2,0,.29a27.3,27.3,0,0,0,3-.16l2.94-.3q.84-.09,1.49-.19l1.19-.19,1.06-.15a9.5,9.5,0,0,1,1.12-.06,2.33,2.33,0,0,1,.44,0,1.21,1.21,0,0,1,.41.16.9.9,0,0,1,.31.33A1.16,1.16,0,0,1,632.11,15.29Z"/><path class="cls-1" d="M659.16,14.8a1.16,1.16,0,0,1,0,.28,1.58,1.58,0,0,1-.12.32A29.33,29.33,0,0,1,657.51,18q-.86,1.35-1.87,2.65t-2.12,2.45a20.6,20.6,0,0,1-2.22,2,11.63,11.63,0,0,1-2.21,1.38A4.9,4.9,0,0,1,647,27a5.28,5.28,0,0,1-1.84-.31,3.6,3.6,0,0,1-1.45-1,4.76,4.76,0,0,1-1-1.76,8.62,8.62,0,0,1-.34-2.6q-.28.46-.68,1t-.84,1.15q-.45.58-.93,1.13a9.7,9.7,0,0,1-1,.95l-1,.89a11.67,11.67,0,0,1-1.42,1,10.49,10.49,0,0,1-1.77.84,6.83,6.83,0,0,1-2.07.41,4.42,4.42,0,0,1-2.28-.5A3.34,3.34,0,0,1,629.17,27a4.83,4.83,0,0,1-.54-1.73,15.44,15.44,0,0,1-.11-1.85q0-.09,0-.49t.09-1q.06-.6.18-1.34t.28-1.56q.17-.81.4-1.62a13.76,13.76,0,0,1,.53-1.53q.16-.37.31-.68a2.34,2.34,0,0,1,.34-.53,1.54,1.54,0,0,1,.47-.36,1.73,1.73,0,0,1,.7-.16,2,2,0,0,1,.91.18,1.71,1.71,0,0,1,.58.47,1.68,1.68,0,0,1,.31.63,2.82,2.82,0,0,1,.09.69,3.37,3.37,0,0,1-.24.93q-.24.67-.52,1.65T632.45,21a14.79,14.79,0,0,0-.24,2.72,2.36,2.36,0,0,0,.25,1.17.73.73,0,0,0,.65.43,3.5,3.5,0,0,0,1.1-.18,6.09,6.09,0,0,0,1-.46,8.67,8.67,0,0,0,1-.64q.48-.36.92-.73a11.89,11.89,0,0,0,1.15-1.12q.62-.69,1.22-1.45t1.11-1.5a15.14,15.14,0,0,0,.81-1.28q.16-.28.37-.75t.4-1q.19-.51.35-1t.23-.75l.1-.43.09-.38q0-.19.11-.4t.18-.47a1.24,1.24,0,0,1,.26-.38A2.55,2.55,0,0,1,644,12a3,3,0,0,1,.54-.28,1.51,1.51,0,0,1,.55-.11,1.59,1.59,0,0,1,1.21.45,1.68,1.68,0,0,1,.46,1.1l-.24,1.17q-.17.82-.34,1.83t-.3,2.09a17.6,17.6,0,0,0-.12,2,5.66,5.66,0,0,0,.43,2.43,1.34,1.34,0,0,0,1.22.89,2.84,2.84,0,0,0,1.26-.33,8.09,8.09,0,0,0,1.36-.87,15,15,0,0,0,1.42-1.26q.71-.71,1.41-1.5T654.2,18l1.2-1.53a20.84,20.84,0,0,1,1.48-1.75,1.87,1.87,0,0,1,1.3-.69l.27,0a1.16,1.16,0,0,1,.33.12.93.93,0,0,1,.27.23A.57.57,0,0,1,659.16,14.8Z"/><path class="cls-1" d="M694.39,18a2.21,2.21,0,0,1-.18.76,4.7,4.7,0,0,1-.53,1,29,29,0,0,1-2.38,3,26,26,0,0,1-2.45,2.38q-.39.32-.91.69a11.25,11.25,0,0,1-1.12.7,7.88,7.88,0,0,1-1.19.54,3.39,3.39,0,0,1-1.12.21,2.84,2.84,0,0,1-1.32-.32,5,5,0,0,1-1.15-.83,7.16,7.16,0,0,1-1-1.17,15.17,15.17,0,0,1-.81-1.33q-.36-.67-.64-1.3t-.47-1.11q-.23-.56-.39-1t-.28-.73a2.73,2.73,0,0,0-.23-.46.3.3,0,0,0-.25-.16q-.4,0-1.15,1.22t-2,3.42q-.7,1.25-1.32,2.21a15.34,15.34,0,0,1-1.18,1.63,5.37,5.37,0,0,1-1.09,1,1.87,1.87,0,0,1-1,.35,2.49,2.49,0,0,1-1.3-.31,2,2,0,0,1-.8-1,5.85,5.85,0,0,1-.41-1.65q-.12-1-.18-2.39-.14-4.38-.58-4.38a.92.92,0,0,0-.44.22,2.92,2.92,0,0,0-.6.62q-.69.91-1.29,1.78t-1.17,1.74q-.56.87-1.09,1.75L661.31,27a10.7,10.7,0,0,1-.75,1.13,9.37,9.37,0,0,1-.83,1,5.21,5.21,0,0,1-.83.69,1.35,1.35,0,0,1-.7.26,2.13,2.13,0,0,1-1.42-.42,2.56,2.56,0,0,1-.74-1.27,8.56,8.56,0,0,1-.28-1.52q-.07-.76-.07-1.59,0-.62,0-1.12t.11-1.05q.07-.54.18-1.18l.27-1.49q.25-1.27.4-2.09t.24-1.4q.09-.57.11-1t0-.86a1.43,1.43,0,0,1,.41-1,1.54,1.54,0,0,1,1.15-.42,2.07,2.07,0,0,1,1.71.63,3.29,3.29,0,0,1,.51,2.06,5.58,5.58,0,0,1-.12,1q-.12.62-.31,1.36t-.4,1.53q-.21.79-.4,1.56t-.33,1.45a7.89,7.89,0,0,0-.15,1.2q.63-1.05,1.38-2.23T662,19.92q.74-1.1,1.42-2t1.19-1.51A5.51,5.51,0,0,1,666.31,15a4.35,4.35,0,0,1,1.92-.45,1.69,1.69,0,0,1,1.35.6,4.18,4.18,0,0,1,.79,1.56,12.77,12.77,0,0,1,.41,2.2q.13,1.23.22,2.48,0,.19,0,.58t.05.78a4.72,4.72,0,0,0,.11.69q.07.29.19.29s.09-.1.21-.31.25-.46.41-.76l.52-1q.28-.54.52-1l.41-.84.21-.42a11.4,11.4,0,0,1,1.11-1.78q.56-.72,1.16-1.39a3.72,3.72,0,0,1,2.72-1.42,2.21,2.21,0,0,1,2,.91,7.74,7.74,0,0,1,.54,1.06q.27.64.54,1.34l.51,1.36q.25.67.44,1.13a8.59,8.59,0,0,0,.55,1.12,7.73,7.73,0,0,0,.69,1,4,4,0,0,0,.76.73,1.31,1.31,0,0,0,.75.28,3.33,3.33,0,0,0,1.25-.39,7.85,7.85,0,0,0,1.83-1.28q1.07-.95,2.18-2L693,17.68a1.15,1.15,0,0,1,.84-.35.41.41,0,0,1,.4.21A.94.94,0,0,1,694.39,18Z"/><path class="cls-1" d="M715.82,24a.29.29,0,0,1,.25.18,1.45,1.45,0,0,1,.1.62,3.07,3.07,0,0,1-.45,1.49,5.28,5.28,0,0,1-1.32,1.5A7.43,7.43,0,0,1,712.25,29a8.63,8.63,0,0,1-3,.47,7.49,7.49,0,0,1-2.81-.5,5.31,5.31,0,0,1-2.13-1.56,7.44,7.44,0,0,1-1.36-2.7,14.92,14.92,0,0,1-.52-3.95,15.43,15.43,0,0,0-1.62,1.61q-.83.94-1.56,1.91T698,26.07l-.91,1.3q-.46.69-.75,1.15a4.87,4.87,0,0,1-.56.76,1.67,1.67,0,0,1-.61.42,2.5,2.5,0,0,1-.9.13,2.65,2.65,0,0,1-1.66-.56,1.83,1.83,0,0,1-.47-.55,1.29,1.29,0,0,1-.17-.62q0-.3,0-.7t.1-.83l.12-.83.11-.75.15-.93.18-1.09q.1-.6.19-1.33T693,20l.2-2q.1-1,.24-2a9.44,9.44,0,0,1,.23-1.13,2.75,2.75,0,0,1,.4-.89,1.84,1.84,0,0,1,.69-.58,2.44,2.44,0,0,1,1.09-.21,2.62,2.62,0,0,1,.95.14,1.11,1.11,0,0,1,.75.92,4.41,4.41,0,0,1,0,.62q0,.18,0,.32t0,.26a6.46,6.46,0,0,1-.09.69q-.07.4-.22,1.13t-.41,1.94q-.16.7-.33,1.44T696.19,22q-.15.67-.25,1.2t-.14.83q.42-.49,1-1.22l1.13-1.49L699,19.86q.53-.69.9-1.11.6-.67,1.17-1.27a8.88,8.88,0,0,1,1.19-1,5.4,5.4,0,0,1,1.3-.7,4.31,4.31,0,0,1,1.51-.25,2.21,2.21,0,0,1,.76.11,1,1,0,0,1,.43.29.93.93,0,0,1,.19.42,2.75,2.75,0,0,1,0,.5v.28q0,.11,0,.5t-.11.85q-.06.46-.11.86t0,.53a14.36,14.36,0,0,0,.21,2.53,7.25,7.25,0,0,0,.66,2,3.76,3.76,0,0,0,1.15,1.37,2.83,2.83,0,0,0,1.69.5,7.9,7.9,0,0,0,1.2-.08,4.87,4.87,0,0,0,1-.26,6.24,6.24,0,0,0,1-.49q.51-.31,1.18-.75a4.93,4.93,0,0,1,.51-.35,2.63,2.63,0,0,1,.5-.24A1.64,1.64,0,0,1,715.82,24Z"/><path class="cls-1" d="M751.32,7.89a1,1,0,0,1-.54.22,5.34,5.34,0,0,1-.71,0l-1.46,0-1,0q-.44,0-1.18.07l-1.6.18q-.86.11-1.76.25T741.39,9q-.77.16-1.33.33a2.44,2.44,0,0,0-.73.31,5.7,5.7,0,0,0-.33,1q-.23.83-.46,2t-.4,2.58a21.42,21.42,0,0,0-.18,2.69q1-.19,2-.43t2.21-.45a12.58,12.58,0,0,0,1.4-.32l1.5-.42q.76-.21,1.47-.37a6,6,0,0,1,1.29-.16q.63,0,1.06,0a2,2,0,0,1,.7.18.8.8,0,0,1,.39.43,2.25,2.25,0,0,1,.11.8,1.93,1.93,0,0,1-.22.89,3.39,3.39,0,0,1-.57.8,2.3,2.3,0,0,1-.92.49q-.68.23-1.46.41t-1.49.32l-1,.18q-1.23.21-2.43.47t-2.17.5q-1,.25-1.59.47t-.69.36a3.28,3.28,0,0,0-.2.76q-.08.47-.13,1.06t-.07,1.24q0,.65,0,1.28,0,1,0,1.74t0,1.42a6.52,6.52,0,0,1-.05.84,1.83,1.83,0,0,1-.24.71,1.3,1.3,0,0,1-.55.49,2.22,2.22,0,0,1-1,.18h-.18l-.18,0a3.93,3.93,0,0,1-.49-.16,3.44,3.44,0,0,1-1.56-1.21,1.86,1.86,0,0,1-.33-1.11,34.06,34.06,0,0,1,.23-4q.23-1.94.4-3.54l.1-.69.2-1.42.28-1.92q.16-1.06.32-2.16l.31-2.16.27-1.92q.12-.86.19-1.43t.07-.69A1.63,1.63,0,0,0,734.8,9q-.07-.24-.16-.48t-.16-.5a1.94,1.94,0,0,1-.07-.52,1.38,1.38,0,0,1,.22-.7,3.14,3.14,0,0,1,.54-.68,3.26,3.26,0,0,1,.7-.51,1.49,1.49,0,0,1,.69-.2,5.32,5.32,0,0,1,1.23.12,4.12,4.12,0,0,0,1,.12,9.92,9.92,0,0,0,1.61-.16q.94-.16,2.14-.4l2.07-.4,2-.33q1-.15,1.91-.24T750.23,4a2.22,2.22,0,0,1,.72.15,4.52,4.52,0,0,1,.82.39,3,3,0,0,1,.67.54.88.88,0,0,1,.27.58,2.37,2.37,0,0,1-.29,1.09,3.3,3.3,0,0,1-1.12,1.13Z"/><path class="cls-1" d="M775.44,18.25a3.08,3.08,0,0,1-.47,1.16,31.13,31.13,0,0,1-2,2.61,29.38,29.38,0,0,1-2.38,2.45,29.58,29.58,0,0,1-2.64,2.15,21.3,21.3,0,0,1-2.78,1.71,16.25,16.25,0,0,1-2.8,1.13,9.62,9.62,0,0,1-2.73.41,6.29,6.29,0,0,1-4.68-1.7,7,7,0,0,1-1.68-5.12,18.69,18.69,0,0,1,.19-2.7,14.24,14.24,0,0,1,.64-2.62,14.73,14.73,0,0,1,1.17-2.54A14.56,14.56,0,0,1,757,12.78a6.63,6.63,0,0,1,.91-.84,7.81,7.81,0,0,1,1.11-.72,6.64,6.64,0,0,1,1.23-.51,4.4,4.4,0,0,1,1.27-.19,3.45,3.45,0,0,1,1.61.35,3.23,3.23,0,0,1,1.12.94,4,4,0,0,1,.65,1.35,6,6,0,0,1,.21,1.61A5.73,5.73,0,0,1,764,18a18.43,18.43,0,0,1-3.22,3.44q-.67.56-1.55,1.22l-2,1.49a2,2,0,0,0,.25.83,2.25,2.25,0,0,0,.6.68,2.92,2.92,0,0,0,.91.46,4,4,0,0,0,1.2.17,8.26,8.26,0,0,0,1.83-.22,13.59,13.59,0,0,0,1.92-.59,16.44,16.44,0,0,0,1.85-.85,15.32,15.32,0,0,0,1.63-1,29.18,29.18,0,0,0,2.5-2q1.2-1.08,2.33-2.21l.93-.93a2.74,2.74,0,0,1,1.65-.86.5.5,0,0,1,.48.24A.88.88,0,0,1,775.44,18.25ZM761.73,15a3.35,3.35,0,0,0-.08-.74.61.61,0,0,0-.25-.44,2.16,2.16,0,0,0-1.27.51,5.69,5.69,0,0,0-1.29,1.45,11.05,11.05,0,0,0-1.1,2.27A14.54,14.54,0,0,0,757,21q.83-.62,1.66-1.29a14,14,0,0,0,1.51-1.42,7.43,7.43,0,0,0,1.11-1.56A3.66,3.66,0,0,0,761.73,15Z"/><path class="cls-1" d="M790.82,17.68a2.48,2.48,0,0,1-.42,1.19,12.66,12.66,0,0,1-1.06,1.5q-.64.79-1.43,1.61t-1.53,1.54q-.44.42-1.3,1.17l-1.92,1.64-2.22,1.85L778.74,30l-1.82,1.44q-.79.62-1.12.84a12,12,0,0,1-2,1.11,4.49,4.49,0,0,1-1.68.39,4,4,0,0,1-1-.11,2.19,2.19,0,0,1-.69-.3,1.19,1.19,0,0,1-.39-.42,1,1,0,0,1-.12-.48,2.54,2.54,0,0,1,.23-1.1,2.81,2.81,0,0,1,.71-.91,6.49,6.49,0,0,1,1.23-.82q.75-.4,1.77-.82.67-.26,1.2-.51a5.34,5.34,0,0,0,.93-.54,2.14,2.14,0,0,0,.61-.66,1.78,1.78,0,0,0,.21-.9,1.32,1.32,0,0,0-.17-.46q-.17-.33-.43-.77l-.59-1-.64-1-.6-.94q-.28-.44-.44-.74a5.68,5.68,0,0,1-.72-2.72,7.48,7.48,0,0,1,.11-1.23,6.77,6.77,0,0,1,.35-1.28,5.55,5.55,0,0,1,.75-1.58,8.32,8.32,0,0,1,1.15-1.38,6.66,6.66,0,0,1,1.27-1,2.33,2.33,0,0,1,1.12-.37,3.9,3.9,0,0,1,1,.11,1.21,1.21,0,0,1,.93.95,3.72,3.72,0,0,1,.09.87,1.77,1.77,0,0,1-.21.83,4.07,4.07,0,0,1-.51.76,6.65,6.65,0,0,1-.63.65l-.58.53-.7.62a6.62,6.62,0,0,0-.53.5,4.21,4.21,0,0,0,.54,2l.66,1.13.81,1.36.78,1.33.58,1a6.06,6.06,0,0,0,.76-.47l1.17-.83q.67-.48,1.43-1.08l1.54-1.23q.77-.63,1.49-1.26t1.3-1.19q.49-.47.82-.82t.56-.56a3.22,3.22,0,0,1,.41-.33.7.7,0,0,1,.39-.11.49.49,0,0,1,.38.17,1.37,1.37,0,0,1,.24.37,1.88,1.88,0,0,1,.12.38A1.75,1.75,0,0,1,790.82,17.68Z"/><path class="cls-1" d="M806.87,15.29a1.06,1.06,0,0,1-.41.79,4.52,4.52,0,0,1-1.08.69,10.9,10.9,0,0,1-1.51.57q-.84.25-1.7.46t-1.63.33l-1.33.22q-2,.28-3.28.42a7,7,0,0,0-1.87.39q-.32,1.32-.64,2.73t-.59,2.65q-.26,1.23-.43,2.14a8.52,8.52,0,0,0-.17,1.23,3.84,3.84,0,0,0,0,.4,1.59,1.59,0,0,0,.06.31l.09.27.1.31a3.46,3.46,0,0,1,.14.47q.07.3.13.6t.1.55a3.06,3.06,0,0,1,0,.36,2.08,2.08,0,0,1-.15.73,3,3,0,0,1-.41.75,2.42,2.42,0,0,1-.63.59,1.5,1.5,0,0,1-.83.24,1.57,1.57,0,0,1-.87-.25,2.83,2.83,0,0,1-.71-.67,4.83,4.83,0,0,1-.55-.93,8.59,8.59,0,0,1-.4-1,7.85,7.85,0,0,1-.24-1,4.44,4.44,0,0,1-.08-.75q0-.3.06-.93a7.81,7.81,0,0,1,.24-1.28q.54-2.06.84-3.38t.44-2.13q.14-.8.18-1.17l.06-.51-.65,0-.87.07-.83.07-.53,0a8.38,8.38,0,0,1-1.56-.12,2.08,2.08,0,0,1-1-.48,2,2,0,0,1-.56-1,7.28,7.28,0,0,1-.17-1.73,13.75,13.75,0,0,0,1.47-.1,8.68,8.68,0,0,1,1.12-.08l.71,0,1.26-.1,1.33-.11.92-.1q0-.19.14-.62l.24-.93q.13-.51.27-1l.25-.88q.09-.26.23-.87l.3-1.26.29-1.2.17-.71a13.18,13.18,0,0,1,.44-1.38,5.48,5.48,0,0,1,.55-1.1,2.77,2.77,0,0,1,.68-.72,1.31,1.31,0,0,1,.77-.26,1.77,1.77,0,0,1,1.37.47,2.05,2.05,0,0,1,.42,1.42,5.23,5.23,0,0,1-.11,1,9.73,9.73,0,0,1-.3,1.14q-.39,1.23-.59,2.06t-.33,1.45q-.12.62-.19,1.15t-.19,1.16a1.65,1.65,0,0,0,0,.27q0,.2,0,.29a27.3,27.3,0,0,0,3-.16l2.94-.3q.84-.09,1.49-.19l1.19-.19,1.06-.15a9.5,9.5,0,0,1,1.12-.06,2.33,2.33,0,0,1,.44,0,1.21,1.21,0,0,1,.41.16.9.9,0,0,1,.31.33A1.16,1.16,0,0,1,806.87,15.29Z"/><path class="cls-1" d="M818.17,25l-1.1,1.09q-.52.51-1,1l-1.06.9q-.54.44-1.13.88a11.63,11.63,0,0,1-2.39,1.36,5.89,5.89,0,0,1-2.23.48,5.11,5.11,0,0,1-2.14-.41,4.66,4.66,0,0,1-1.55-1.12,6,6,0,0,1-1-1.63,11,11,0,0,1-.64-2,14.67,14.67,0,0,1-.33-2.08q-.09-1.05-.09-2,0-.37.05-1.06t.15-1.46q.1-.76.21-1.49a10.66,10.66,0,0,1,.24-1.16,2.86,2.86,0,0,1,.45-.87,3.94,3.94,0,0,1,.76-.76,3.17,3.17,0,0,1,2-.74q1.14,0,1.14,1.37a7.17,7.17,0,0,1-.11,1.13q-.11.65-.19,1.32T808,19.13q-.09.62-.15,1.13t-.1.91q0,.4,0,.77a13,13,0,0,0,.1,1.49,10.55,10.55,0,0,0,.29,1.54,5,5,0,0,0,.47,1.2q.28.48.65.48a6.58,6.58,0,0,0,1.23-.13,4.84,4.84,0,0,0,1.46-.57q.74-.42,1.54-1a19.86,19.86,0,0,0,1.64-1.3l1.56-1.37q.76-.69,1.54-1.49l.64-.67.54-.57.48-.53.5-.54.18-.2.23-.23a1.38,1.38,0,0,1,.26-.19.57.57,0,0,1,.28-.08,1.12,1.12,0,0,1,.41.09.65.65,0,0,1,.34.35,1.29,1.29,0,0,1,.14.48q0,.24,0,.4a1.55,1.55,0,0,1-.19.57q-.19.4-.51.92t-.74,1.13l-.86,1.2q-.44.6-.89,1.13T818.17,25ZM811.34,4.59a3.4,3.4,0,0,1-.18,1.1,3.61,3.61,0,0,1-.51,1,2.36,2.36,0,0,1-2.06.93,6.42,6.42,0,0,1-1-.08,4.16,4.16,0,0,1-.92-.25,2.17,2.17,0,0,1-.68-.41.75.75,0,0,1-.26-.56A2.67,2.67,0,0,1,806,5.14,5.21,5.21,0,0,1,806.77,4a4.35,4.35,0,0,1,1-.86,1.92,1.92,0,0,1,1-.34,6.69,6.69,0,0,1,1.09.08,2.39,2.39,0,0,1,.81.27,1.22,1.22,0,0,1,.5.54A2,2,0,0,1,811.34,4.59Z"/><path class="cls-1" d="M845.14,16.59a2.35,2.35,0,0,1-1,1.62,9.49,9.49,0,0,1-1.4,1,11.85,11.85,0,0,1-1.57.77,10.85,10.85,0,0,1-1.61.51,6.7,6.7,0,0,1-1.5.18,8.09,8.09,0,0,1-1.81-.24,11.8,11.8,0,0,1-1.86-.59q-.16.32-.4.84l-.5,1.13-.53,1.2-.47,1q-.42.91-.81,1.72t-.76,1.55l-.72,1.43-.7,1.36a6.28,6.28,0,0,1-.7,1.09,3.91,3.91,0,0,1-.68.66,2.3,2.3,0,0,1-.62.33,1.66,1.66,0,0,1-.52.1,2,2,0,0,1-1.06-.31,4.15,4.15,0,0,1-1-1q.05-.28.07-.46t0-.32a7.12,7.12,0,0,0-.45-2,27.91,27.91,0,0,0-1.38-3.26q-.49-1-.95-2.1t-.81-2.11a20.13,20.13,0,0,1-.56-1.93,7.07,7.07,0,0,1-.21-1.57,4.54,4.54,0,0,1,.15-1.12,3.78,3.78,0,0,1,.46-1.08,2.68,2.68,0,0,1,.77-.81,1.94,1.94,0,0,1,1.12-.32,2,2,0,0,1,1.55.57,2.15,2.15,0,0,1,.53,1.52,6,6,0,0,1-.11,1.08,5.72,5.72,0,0,0-.11,1q0,.25,0,.75t.13,1.13a13.22,13.22,0,0,0,.28,1.33,8.26,8.26,0,0,0,.48,1.35q.14.3.32.72l.37.91q.19.48.37,1t.32.92q.14.43.23.76a2.17,2.17,0,0,1,.09.49v0q.11-.21.32-.73t.47-1.21l.57-1.49.61-1.6q.3-.8.54-1.51l.42-1.22q.28-.86.55-1.6a6.18,6.18,0,0,1,.64-1.29,2.93,2.93,0,0,1,.87-.87,2.31,2.31,0,0,1,1.26-.32,1.69,1.69,0,0,1,.88.22,8.14,8.14,0,0,1,.72.48l.47.33a5.29,5.29,0,0,0,.66.39,5.45,5.45,0,0,0,.78.32,2.73,2.73,0,0,0,.83.13,10,10,0,0,0,1.36-.09,10.74,10.74,0,0,0,1.22-.24q.58-.15,1.11-.33l1.05-.4.84-.32a2.18,2.18,0,0,1,.76-.12.54.54,0,0,1,.5.25A.83.83,0,0,1,845.14,16.59Z"/><path class="cls-1" d="M864.62,16a4.63,4.63,0,0,1-.29.92q-.27.71-.75,1.71t-1.13,2.17A23.46,23.46,0,0,1,861,23.12a21.92,21.92,0,0,1-2.06,2.44,16.92,16.92,0,0,1-2,1.79,10,10,0,0,1-1.85,1.1,3.8,3.8,0,0,1-1.48.38,4.2,4.2,0,0,1-1.64-.28,2.8,2.8,0,0,1-1.09-.81,3.81,3.81,0,0,1-.67-1.28,11.12,11.12,0,0,1-.38-1.72,25.75,25.75,0,0,1-1.53,2.09,15,15,0,0,1-1.72,1.81,9,9,0,0,1-1.84,1.27,4.07,4.07,0,0,1-1.87.48,4.12,4.12,0,0,1-1.26-.21,3.8,3.8,0,0,1-1.21-.65,3.47,3.47,0,0,1-1.29-2.81,9.23,9.23,0,0,1,.19-1.76,19.2,19.2,0,0,1,.53-2q.33-1.06.76-2.15t.91-2.07q.48-1,1-1.77a8.49,8.49,0,0,1,.95-1.28,12.39,12.39,0,0,1,1.26-1.15,10.33,10.33,0,0,1,3.53-1.85,7.54,7.54,0,0,1,2.17-.31,2.26,2.26,0,0,1,1.74.62,3.53,3.53,0,0,1,.77,1.91.54.54,0,0,0,.11.29l.25.35a3.25,3.25,0,0,1,.24.39.88.88,0,0,1,.11.41,2.37,2.37,0,0,1-.11.65l-.26.87a10.27,10.27,0,0,0-.26,1.07,6.59,6.59,0,0,0-.11,1.26q0,1,0,1.94a11.08,11.08,0,0,0,.18,1.67,3.35,3.35,0,0,0,.42,1.17.86.86,0,0,0,.76.44,2.08,2.08,0,0,0,1-.33,8.82,8.82,0,0,0,1.27-.91,17.09,17.09,0,0,0,1.43-1.38q.75-.8,1.45-1.71.58-.76,1.05-1.51t.88-1.46l.76-1.32a11.48,11.48,0,0,1,.69-1.07,3.84,3.84,0,0,1,.66-.72,1.06,1.06,0,0,1,.68-.26.6.6,0,0,1,.4.21,1.17,1.17,0,0,1,.18.76v.2a1.34,1.34,0,0,1,0,.22Zm-14.77.39a.57.57,0,0,0-.06-.24,1.31,1.31,0,0,0-.16-.25,1,1,0,0,0-.21-.2.39.39,0,0,0-.22-.08,2.12,2.12,0,0,0-.81.16,3.55,3.55,0,0,0-.73.4,4.37,4.37,0,0,0-.63.55q-.29.31-.54.62a17.57,17.57,0,0,0-1.24,1.92,21.86,21.86,0,0,0-1.16,2.38,20.83,20.83,0,0,0-.85,2.46,8.25,8.25,0,0,0-.33,2.16.57.57,0,0,0,.25.48,1.1,1.1,0,0,0,.66.18,1.55,1.55,0,0,0,.82-.36,7.56,7.56,0,0,0,1.06-1,16,16,0,0,0,1.13-1.34,15.19,15.19,0,0,0,1-1.54,19.78,19.78,0,0,0,1.42-3.08A9.57,9.57,0,0,0,849.85,16.44Z"/><path class="cls-1" d="M877,23.54a1.75,1.75,0,0,1-.18.65,9,9,0,0,1-.43.85q-.25.45-.54.88t-.52.71a16,16,0,0,1-1.57,1.66,12.88,12.88,0,0,1-1.83,1.41,9.88,9.88,0,0,1-2,1,5.91,5.91,0,0,1-2,.36,5.73,5.73,0,0,1-2.65-.57,4.77,4.77,0,0,1-1.83-1.68,8,8,0,0,1-1.06-2.72,17.91,17.91,0,0,1-.34-3.69q0-1.25.12-2.73t.33-3.07q.21-1.58.51-3.19t.65-3.09q.35-1.49.75-2.79a21.71,21.71,0,0,1,.81-2.26,7.29,7.29,0,0,1,.83-1.51,1.13,1.13,0,0,1,.83-.55,1.45,1.45,0,0,1,.64.14,2.13,2.13,0,0,1,.52.35,2.49,2.49,0,0,1,.4.48,4.51,4.51,0,0,1,.3.54q-.07.77-.28,2t-.5,2.5q-.29,1.33-.6,2.69l-.57,2.52q-.19.86-.33,1.81t-.24,1.9q-.1.95-.14,1.87t0,1.75a11,11,0,0,0,.62,4.15,2.11,2.11,0,0,0,2.06,1.44,5,5,0,0,0,1.73-.31,8.46,8.46,0,0,0,1.6-.79,10.41,10.41,0,0,0,1.44-1.1q.68-.62,1.22-1.21a10.94,10.94,0,0,1,.83-.82,1.23,1.23,0,0,1,.73-.38q.49,0,.6.19A1.56,1.56,0,0,1,877,23.54Z"/></g></g></svg>