<svg xmlns="http://www.w3.org/2000/svg" viewBox="0 0 441.29 152.15"><defs><style>.cls-1{fill:#fff;}</style></defs><title>Asset 29</title><g id="Layer_2" data-name="Layer 2"><g id="Text"><path class="cls-1" d="M30.82,50.32H3.94Q5,26.89,18.66,13.44T53.67,0A47.48,47.48,0,0,1,77,5.56,41.69,41.69,0,0,1,93.11,21.62a42.2,42.2,0,0,1,6.06,21.32q0,12.9-7.34,27.77T65,105.87L48.72,123h51.63v25.51H0v-13.2L44.81,89.62Q61.06,73.17,66.43,63.17T71.79,45.1a18.58,18.58,0,0,0-5.56-13.84Q60.66,25.8,51.9,25.8a19,19,0,0,0-14.77,6.6Q31.22,39,30.82,50.32Z"/><path class="cls-1" d="M164.66,0Q180.51,0,192,7.78t17.73,23.78q6.25,16,6.25,44.56Q216,105,209.62,121t-17.09,23.59q-10.74,7.53-27.08,7.53T138,144.57q-11.13-7.58-17.43-23t-6.3-44q0-39.88,12.31-57.81Q140.23,0,164.66,0Zm.64,26.2a18.86,18.86,0,0,0-12.38,4.48q-5.41,4.48-8.25,15.41t-2.85,32q0,27.48,6.54,38t17,10.49q10,0,15.92-9.95,7.17-12,7.17-40.18,0-28.56-6.44-39.39T165.3,26.2Z"/><path class="cls-1" d="M254.77,3.64H296V148.51H268.66v-119H238.82Z"/><path class="cls-1" d="M420.71,70a44.08,44.08,0,0,1,20.58,37.65A44.91,44.91,0,0,1,435,130.77a40.6,40.6,0,0,1-16.79,16q-10.54,5.37-26.88,5.37-17.53,0-27.87-5.17a39.55,39.55,0,0,1-16.54-15.67,45.69,45.69,0,0,1-6.2-23.7,43.9,43.9,0,0,1,5-20.84A50.41,50.41,0,0,1,360.64,70a47.47,47.47,0,0,1-9.8-14,38.2,38.2,0,0,1-3.3-15.69A39.94,39.94,0,0,1,353,19.63,37.64,37.64,0,0,1,368.32,5.17,48.26,48.26,0,0,1,391.07,0a46.31,46.31,0,0,1,22.36,5.21A38.4,38.4,0,0,1,428.64,20a40.42,40.42,0,0,1,5.56,20.62,35.6,35.6,0,0,1-2.91,14.42Q428.39,61.7,420.71,70ZM391.26,84.69a24.25,24.25,0,0,0-16.74,6.06q-6.8,6.06-6.8,14.43a19.62,19.62,0,0,0,6.4,14.82q6.4,6.06,16.84,6.06t16.79-5.66A18.82,18.82,0,0,0,414,105.77a19.7,19.7,0,0,0-6.5-15A22.92,22.92,0,0,0,391.26,84.69Zm-1.08-58.1A15,15,0,0,0,379,31.06a15.65,15.65,0,0,0-4.38,11.44,16,16,0,0,0,4.63,11.69,16.39,16.39,0,0,0,22.9.1,16.47,16.47,0,0,0,4.48-12A15.06,15.06,0,0,0,402.1,31Q397.56,26.59,390.18,26.59Z"/></g></g></svg>